# OBJ written from E:\3d\3D-Objekte\Cave creator\Textures\CandleLowDetailThin.obj

o CandleLowDetailThin
v -0.00517548 0.253062 0.00412336
v -0.0173029 0.274116 0.0070716
v -0.00174434 0.253307 0.00398305
v -0.014326 0.275701 0.00637792
v -0.00633011 0.259306 0.00526517
v -0.00367312 0.261499 0.00522101
v -0.010047 0.264274 0.00651283
v -0.00852207 0.267373 0.00649737
v -0.0138612 0.268703 0.00775277
v -0.0108799 0.270281 0.00706169
v -0.00330035 0.252707 0.00712021
v -0.00484206 0.259925 0.00831009
v -0.00912496 0.265346 0.0095721
v -0.0127841 0.27072 0.0102323
v -0.016228 0.276136 0.00954982
v 0.0145054 0.0349317 -0.0164
v -0.000886883 0.0347491 -0.0225108
v -0.0105914 0.032385 -0.00918287
v -0.014433 0.0257617 0.000692031
v -0.0101188 0.023347 0.0105272
v -0.000137096 0.0246182 0.0145223
v 0.00968715 0.0277044 0.0103141
v 0.0135542 0.03305 0.000413405
v 0.000544295 0.262555 -0.00335134
v -0.00738756 0.259784 -0.00593263
v -0.0141898 0.255862 -0.00198324
v -0.0158777 0.253085 0.00618332
v -0.0114627 0.253081 0.0137832
v -0.00353084 0.255851 0.0163645
v 0.00327141 0.259774 0.0124151
v 0.00495926 0.26255 0.00424855
v -0.00346247 0.253184 0.00405331
v 0.0191202 0.0311529 -0.0196795
v -0.000884846 0.0309155 -0.0276216
v -0.0204742 0.0219731 -0.0192628
v -0.0283353 0.0177507 0.000664797
v -0.019811 0.0180815 0.020435
v 0.000133602 0.0213592 0.0284385
v 0.0198895 0.0219238 0.0199107
v 0.0278115 0.0230776 -7.88478e-005
v 0.0229519 0.0182312 -0.0236234
v -0.000702788 0.0179506 -0.0330143
v -0.023949 0.0115553 -0.0230464
v -0.0333143 0.0100937 0.000587989
v -0.0232256 0.0100131 0.0239555
v 0.000373844 0.0130726 0.0334024
v 0.0237338 0.0137402 0.0233191
v 0.0331541 0.0124364 -0.000371118
v 0.0285347 0.0131298 -0.0293737
v -0.000715985 0.0127828 -0.0409864
v -0.0295784 0.0107555 -0.0285416
v -0.0411788 0.00993514 0.000703826
v -0.0286988 0.0096004 0.0295946
v 0.00051551 0.0117753 0.0412441
v 0.0294018 0.0126008 0.0287752
v 0.0410385 0.0115933 -0.000507158
v 0.0338086 0.000748277 -0.0348039
v -0.000598918 0.000748277 -0.0484641
v 5.1115e-005 0.000748277 -2.47403e-005
v -0.0345778 0.000748277 -0.0337966
v -0.0482235 0.000748277 0.000604682
v -0.0335432 0.000748277 0.0345888
v 0.000860721 0.000748277 0.0482526
v 0.0348397 0.000748277 0.0335852
v 0.0484889 0.000748277 -0.000819796
v 0.00890134 0.0420222 -0.00907483
v -0.000880634 0.0413059 -0.0131083
vn 0.0640759 -0.985556 -0.156762
vn -0.501389 0.764261 -0.405603
vn 0 -1 0
vn -0.566436 0.646283 0.51134
vn -0.282543 0.745437 0.603732
vn -0.385645 0.894906 0.224547
vn -0.0390828 0.885824 0.462373
vn 0.0213349 0.9852 0.170078
vn -0.136691 0.985355 -0.101934
vn -0.420584 0.886197 -0.194327
vn -0.664045 0.745814 -0.0529683
vn -0.72446 0.646437 0.239327
vn 0.895938 0.404487 0.183536
vn 0.549625 0.810986 -0.200535
vn 0.712779 0.526939 -0.462905
vn -0.149043 0.820158 -0.552383
vn -0.802025 0.500868 -0.325403
vn -0.418662 0.41856 -0.805934
vn -0.632511 -0.591983 0.499485
vn -0.650121 -0.628116 0.427566
vn -0.736517 -0.503907 0.451244
vn -0.794541 -0.375936 0.47684
vn -0.834332 0.166973 -0.525367
vn -0.687297 0.00998958 -0.726308
vn -0.359016 0.194363 -0.91287
vn 0.0613031 0.0330765 -0.997571
vn -0.81388 0.55028 -0.186523
vn -0.664948 0.592593 -0.454618
vn -0.129678 0.608867 -0.782601
vn -0.054073 0.71312 -0.698953
vn -0.556554 0.709314 -0.432575
vn -0.100275 0.681076 -0.725314
vn -0.464564 0.822519 -0.32809
vn -0.342537 0.938004 -0.0530709
vn 0.101811 0.52215 -0.846755
vn -0.517041 0.562582 -0.645113
vn 0.559628 0.45639 -0.691755
vn -0.0630906 0.602161 -0.795878
vn 0.46123 0.535759 -0.707269
vn -0.102587 0.260196 -0.96009
vn 0.551335 0.339249 -0.762194
vn 0.623138 0.04388 -0.78088
vn 0.500555 0.636687 -0.586579
vn 0.631177 0.61755 -0.469306
vn 0.484641 0.687836 -0.540375
vn 0.573322 0.729601 -0.372806
vn 0.594215 0.521617 -0.61223
vn 0.797723 0.37421 0.472869
vn 0.849342 0.243393 0.468378
vn 0.889824 0.130648 0.437201
vn 0.881411 0.112639 0.458723
vn 0.757521 0.529736 0.381501
vn 0.765034 0.513783 0.388265
vn 0.757504 0.529746 0.38152
vn 0.755654 0.503783 0.418558
vn 0.941534 0.324256 0.0914963
vn 0.76393 0.165153 -0.623807
vn 0.968522 0.0421387 -0.245337
vn 0.698746 0.296939 -0.650832
vn 0.73753 0.660835 0.13909
vn 0.561355 0.824815 0.0675296
vn 0.457884 0.88901 0.00178227
vn 0.305642 0.933098 -0.189505
vn 0.837618 0.546161 -0.0101516
vn -0.840701 -0.251118 0.479752
vn -0.834744 -0.244562 0.493348
vn 0.636107 0.192568 0.747185
vn 0.855466 0.0217933 0.5174
vn 0.336764 0.775877 0.533485
vn 0.279395 0.849133 0.448232
vn 0.835564 0.458825 0.30218
vn 0.526567 0.494135 0.691779
vn 0.517669 0.78443 0.341597
vn 0.438637 0.841546 0.315274
vn 0.409804 0.81106 0.417424
vn 0.610956 0.521883 0.59529
vn -0.175174 -0.0981084 -0.979637
vn -0.170055 -0.0752054 -0.982561
vn -0.120372 -0.199084 -0.972562
vn -0.120626 -0.199094 -0.972528
vn -0.648472 -0.509714 0.565399
vn -0.667409 -0.408773 0.622471
vn -0.703043 -0.370604 0.606946
vn -0.70303 -0.370533 0.607004
vn -0.0999626 -0.0102823 0.994938
vn 0.21003 -0.002729 0.977691
vn -0.155443 0.804621 0.573082
vn -0.0592842 0.939331 0.33785
vn -0.209418 0.674044 0.708384
vn 0.0440086 0.834421 0.549368
vn -0.0947452 0.799239 0.593498
vn 0.0193913 0.883345 0.468322
vn 0.324463 0.896996 0.300204
vn 0.124351 0.525928 0.841389
vn -0.169019 0.105887 -0.979908
vn -0.199846 0.0590383 -0.978047
vn 0.741761 0.484473 0.463763
vn 0.727643 0.498424 0.471285
vn -0.695642 -0.0142493 0.718248
vn -0.0908783 0.235092 0.967715
vn -0.661763 -0.0150981 0.749561
vn -0.52207 0.755705 0.395416
vn -0.217988 0.939979 0.262526
vn -0.458059 0.696833 0.551911
vn -0.339446 0.863598 0.372793
vn -0.302035 0.915036 0.267363
vn -0.314093 0.913781 0.257585
vn -0.0423084 0.992623 0.113617
vn -0.563994 0.593449 0.57422
vn -0.138926 0.148597 -0.979091
vn -0.123678 0.128066 -0.984024
vn -0.881429 0.391812 0.263756
vn -0.999696 -0.00863482 -0.0230773
vn -0.679925 0.723298 0.120591
vn -0.684844 0.599354 0.414444
vn -0.386418 0.874413 0.2934
vn -0.643022 0.764649 0.0428436
vn -0.392509 0.917019 0.0708001
vn -0.565328 0.815528 0.123767
vn -0.797795 0.595652 -0.093389
vn -0.0502947 0.137643 -0.989204
vn -0.0963373 0.145255 -0.984693
vn -0.980681 -0.00934391 0.195392
vn -0.806008 0.404907 -0.431742
vn -0.630373 0.768364 -0.110663
vn -0.487172 0.82019 -0.299919
vn -0.859633 0.509299 0.0405761
vn -0.394316 0.890427 -0.227276
vn -0.123225 0.991486 0.04208
vt 0.856435 0.0298651
vt 0.915729 0.0298651
vt 0.975023 0.0298651
vt 0.975023 0.943645
vt 0.915729 0.943645
vt 0.856435 0.943645
vt 0.827765 0.055522
vt 0.745831 0.055522
vt 0.500021 0.0178197
vt 0.254233 0.055522
vt 0.172299 0.055522
vt 0.336165 0.055522
vt 0.418098 0.055522
vt 0.500032 0.0565539
vt 0.581966 0.0565539
vt 0.663898 0.055522
vt 0.745831 0.970276
vt 0.827765 0.970276
vt 0.500021 0.987959
vt 0.172299 0.970276
vt 0.254233 0.970276
vt 0.336165 0.970276
vt 0.418098 0.970276
vt 0.500032 0.970276
vt 0.581966 0.970276
vt 0.663898 0.970276
vt 0.663898 0.241867
vt 0.759311 0.314585
vt 0.745831 0.321332
vt 0.172299 0.314585
vt 0.254233 0.238475
vt 0.172299 0.318843
vt 0.975023 0.50105
vt 0.975023 0.271988
vt 0.254233 0.177312
vt 0.172299 0.224942
vt 0.172299 0.150654
vt 0.254233 0.118092
vt 0.172299 0.120386
vt 0.254233 0.113554
vt 0.827765 0.314585
vt 0.827765 0.318843
vt 0.827765 0.224942
vt 0.745831 0.224942
vt 0.745831 0.150654
vt 0.827765 0.150654
vt 0.827765 0.120386
vt 0.745831 0.120386
vt 0.856435 0.276847
vt 0.856435 0.726114
vt 0.663898 0.180334
vt 0.663898 0.119249
vt 0.663898 0.113554
vt 0.581966 0.196471
vt 0.581966 0.176964
vt 0.581966 0.130433
vt 0.581966 0.123946
vt 0.975023 0.726412
vt 0.500032 0.171341
vt 0.500032 0.176964
vt 0.500032 0.130433
vt 0.500032 0.123946
vt 0.856435 0.491355
vt 0.418098 0.161011
vt 0.418098 0.15968
vt 0.418098 0.114635
vt 0.418098 0.113554
vt 0.336165 0.181627
vt 0.336165 0.156497
vt 0.336165 0.113554
mtllib CandleLowDetailThin.mtl
usemtl CandleSmall
g Default
f 3/1/1 11/2/1 1/3/1
f 2/4/2 15/5/2 4/6/2
f 58/7/3 57/8/3 59/9/3
f 60/10/3 58/11/3 59/9/3
f 61/12/3 60/10/3 59/9/3
f 62/13/3 61/12/3 59/9/3
f 63/14/3 62/13/3 59/9/3
f 64/15/3 63/14/3 59/9/3
f 65/16/3 64/15/3 59/9/3
f 57/8/3 65/16/3 59/9/3
f 24/17/4 25/18/5 32/19/6
f 25/20/5 26/21/7 32/19/6
f 26/21/7 27/22/8 32/19/6
f 27/22/8 28/23/9 32/19/6
f 28/23/9 29/24/10 32/19/6
f 29/24/10 30/25/11 32/19/6
f 30/25/11 31/26/12 32/19/6
f 31/26/12 24/17/4 32/19/6
f 23/27/13 16/28/14 66/29/15
f 17/30/16 18/31/17 67/32/18
f 13/33/19 7/33/20 12/34/21
f 5/34/22 12/34/21 7/33/20
f 18/31/23 26/21/24 67/32/25
f 25/20/26 67/32/25 26/21/24
f 18/31/27 17/30/16 35/35/28
f 34/36/29 35/35/28 17/30/16
f 34/36/29 42/37/30 35/35/28
f 43/38/31 35/35/28 42/37/30
f 50/39/32 51/40/33 42/37/30
f 43/38/34 42/37/30 51/40/33
f 58/11/35 60/10/36 50/39/32
f 51/40/33 50/39/32 60/10/36
f 16/28/14 17/41/16 66/29/37
f 67/42/38 66/29/39 17/41/16
f 67/42/40 25/18/26 66/29/41
f 24/17/42 66/29/41 25/18/26
f 34/43/29 17/41/16 33/44/43
f 16/28/14 33/44/43 17/41/16
f 41/45/44 42/46/30 33/44/43
f 34/43/29 33/44/43 42/46/30
f 50/47/32 42/46/30 49/48/45
f 41/45/46 49/48/45 42/46/30
f 57/8/47 58/7/35 49/48/45
f 50/47/32 49/48/45 58/7/35
f 6/49/48 12/49/49 3/1/50
f 11/2/51 3/1/50 12/49/49
f 15/5/52 14/50/53 4/6/54
f 10/50/55 4/6/54 14/50/53
f 23/27/56 66/29/57 31/26/58
f 24/17/42 31/26/58 66/29/59
f 23/27/13 40/51/60 16/28/14
f 33/44/43 16/28/14 40/51/60
f 33/44/43 40/51/60 41/45/44
f 48/52/61 41/45/44 40/51/60
f 49/48/45 41/45/46 56/53/62
f 48/52/61 56/53/62 41/45/63
f 57/8/47 49/48/45 65/16/64
f 56/53/62 65/16/64 49/48/45
f 12/34/21 5/34/22 11/2/65
f 1/3/66 11/2/65 5/34/22
f 22/54/67 23/27/13 30/25/68
f 31/26/58 30/25/68 23/27/13
f 39/55/69 40/51/60 22/54/70
f 23/27/71 22/54/72 40/51/60
f 48/52/61 40/51/60 47/56/73
f 39/55/69 47/56/74 40/51/60
f 55/57/75 56/53/62 47/56/74
f 48/52/61 47/56/74 56/53/62
f 64/15/76 65/16/64 55/57/75
f 56/53/62 55/57/75 65/16/64
f 10/50/77 9/58/78 4/6/79
f 2/4/80 4/6/79 9/58/78
f 9/58/81 14/58/82 2/4/83
f 15/5/84 2/4/83 14/58/82
f 21/59/85 22/54/67 29/24/86
f 30/25/68 29/24/86 22/54/67
f 38/60/87 39/55/69 21/59/88
f 22/54/70 21/59/89 39/55/69
f 47/56/74 39/55/69 46/61/90
f 38/60/87 46/61/90 39/55/69
f 54/62/91 55/57/75 46/61/92
f 47/56/93 46/61/92 55/57/75
f 64/15/76 55/57/75 63/14/94
f 54/62/91 63/14/94 55/57/75
f 7/33/95 9/58/78 8/63/96
f 10/50/77 8/63/96 9/58/78
f 14/50/53 13/63/97 10/50/55
f 8/63/98 10/50/55 13/63/97
f 20/64/99 21/59/100 28/23/101
f 29/24/86 28/23/101 21/59/100
f 37/65/102 38/60/87 20/64/103
f 21/59/88 20/64/103 38/60/87
f 46/61/90 38/60/87 45/66/104
f 37/65/102 45/66/105 38/60/87
f 54/62/91 46/61/92 53/67/106
f 45/66/107 53/67/106 46/61/108
f 63/14/94 54/62/91 62/13/109
f 53/67/106 62/13/109 54/62/91
f 5/34/110 7/33/95 6/49/111
f 8/63/96 6/49/111 7/33/95
f 7/33/20 13/33/19 9/58/81
f 14/58/82 9/58/81 13/33/19
f 20/64/99 28/23/101 19/68/112
f 27/22/113 19/68/112 28/23/101
f 36/69/114 37/65/102 19/68/115
f 20/64/103 19/68/116 37/65/102
f 45/66/105 37/65/102 44/70/117
f 36/69/114 44/70/117 37/65/102
f 53/67/106 45/66/105 52/70/118
f 44/70/119 52/70/118 45/66/107
f 61/12/120 62/13/109 52/70/118
f 53/67/106 52/70/118 62/13/109
f 3/1/121 1/3/122 6/49/111
f 5/34/110 6/49/111 1/3/122
f 8/63/98 13/63/97 6/49/48
f 12/49/49 6/49/48 13/63/97
f 19/68/123 27/22/113 18/31/124
f 26/21/24 18/31/124 27/22/113
f 35/35/28 36/69/114 18/31/27
f 19/68/115 18/31/125 36/69/114
f 43/38/126 44/70/127 35/35/28
f 36/69/114 35/35/28 44/70/117
f 51/40/33 52/70/118 43/38/128
f 44/70/119 43/38/129 52/70/118
f 60/10/36 61/12/120 51/40/33
f 52/70/118 51/40/33 61/12/120
