# OBJ written from E:\3d\3D-Objekte\Cave creator\Textures\Crate_LOD2.obj

o Crate_LOD3
v -0.299495 -0.299495 0.299495
v -0.299495 0.299495 0.299495
v -0.299495 0.299495 -0.299495
v -0.299495 -0.299495 -0.299495
v 0.299495 0.299495 0.299495
v 0.299495 0.299495 -0.299495
v 0.299495 -0.299495 -0.299495
v 0.299495 -0.299495 0.299495
vn -1.99017e-007 -1 9.90193e-014
vn -1.99017e-007 -1 4.95097e-014
vn -1.99017e-007 -1 0
vn 1 -3.21813e-013 -4.97542e-007
vn 1 -1.60906e-013 -4.97543e-007
vn 1 0 -4.97543e-007
vn 1.28725e-013 6.46805e-007 1
vn 3.23402e-007 3.23403e-007 1
vn 6.46805e-007 0 1
vn 0 0 -1
vn 0 1 0
vn -1 0 0
vt 1 1
vt 1.78814e-007 1
vt 0.999999 4.76837e-007
vt -2.98023e-008 9.53674e-007
vt 1 -2.98023e-008
vt 1 1
vt 0 -2.98023e-008
vt 0 1
mtllib Crate_LOD2.mtl
usemtl Crate
g Default
f 8/1/1 1/2/2 7/3/2
f 4/4/3 7/3/2 1/2/2
f 8/5/4 7/6/5 5/7/5
f 6/8/6 5/7/5 7/6/5
f 8/5/7 5/6/8 1/7/8
f 2/8/9 1/7/8 5/6/8
f 7/7/10 4/5/10 6/8/10
f 3/6/10 6/8/10 4/5/10
f 2/7/11 5/5/11 3/8/11
f 6/6/11 3/8/11 5/5/11
f 3/8/12 4/7/12 2/6/12
f 1/5/12 2/6/12 4/7/12
