# OBJ written from E:\3d\3D-Objekte\Cave creator\Textures\Crate_LOD1.obj

o Crate_LOD2
v -0.299495 -0.299495 0.299495
v -0.299495 0.299495 0.299495
v -0.299495 0.299495 -0.299495
v -0.299495 -0.299495 -0.299495
v -0.299495 -0.24156 -0.24156
v -0.299495 -0.24156 0.24156
v -0.299495 0.24156 0.24156
v -0.299495 0.24156 -0.24156
v -0.276199 -0.24559 -0.24559
v -0.276199 -0.24559 0.245591
v -0.276199 0.245591 0.245591
v -0.276199 0.245591 -0.24559
v 0.299495 0.299495 0.299495
v 0.299495 0.299495 -0.299495
v -0.24156 0.299495 0.241559
v 0.24156 0.299495 0.241559
v 0.24156 0.299495 -0.24156
v -0.24156 0.299495 -0.24156
v -0.245591 0.276198 0.24559
v 0.245591 0.276198 0.24559
v 0.245591 0.276198 -0.245591
v -0.245591 0.276198 -0.245591
v 0.299495 -0.299495 -0.299495
v 0.24156 -0.24156 -0.299495
v -0.24156 -0.24156 -0.299495
v -0.24156 0.24156 -0.299495
v 0.24156 0.24156 -0.299495
v 0.245591 -0.24559 -0.276199
v -0.245591 -0.24559 -0.276199
v -0.245591 0.245591 -0.276199
v 0.245591 0.245591 -0.276199
v 0.299495 -0.299495 0.299495
v -0.24156 -0.24156 0.299495
v 0.24156 -0.24156 0.299495
v 0.24156 0.24156 0.299495
v -0.24156 0.24156 0.299495
v -0.245591 -0.24559 0.276199
v 0.245591 -0.24559 0.276199
v 0.245591 0.245591 0.276199
v -0.245591 0.245591 0.276199
v -0.24156 -0.299495 -0.24156
v 0.24156 -0.299495 -0.24156
v 0.24156 -0.299495 0.24156
v -0.24156 -0.299495 0.24156
v -0.245591 -0.276198 -0.24559
v 0.245591 -0.276198 -0.24559
v 0.245591 -0.276198 0.245591
v -0.245591 -0.276198 0.245591
v 0.299495 0.24156 0.241559
v 0.299495 -0.24156 0.241559
v 0.299495 -0.24156 -0.24156
v 0.299495 0.24156 -0.24156
v 0.276198 0.24559 0.24559
v 0.276198 -0.245591 0.24559
v 0.276198 -0.245591 -0.245591
v 0.276198 0.24559 -0.245591
vn 0.170488 -0.98536 0
vn 0.170488 -0.98536 0
vn 0.170488 -0.98536 0
vn -0.98536 -0.170484 0
vn 0 0.985359 0.170492
vn 2.15602e-007 2.01348e-006 1
vn 0 0 1
vn -1.43808e-006 -1 -6.19532e-007
vn -6.63389e-008 -1 -6.19532e-007
vn -7.5221e-007 -1 -6.19532e-007
vn 0 -1 0
vn 1 0 0
vn 0.170494 0 -0.985359
vn 0.170494 0 -0.985359
vn 0 -0.170493 -0.985359
vn 0 -0.170493 -0.985359
vn 0 0 -1
vn 2.66028e-006 2.22908e-006 1
vn 2.44468e-006 2.01348e-006 1
vn -7.5221e-007 -1 7.5221e-007
vn -1.37174e-006 -1 6.85871e-007
vn 0.170489 0.98536 0
vn 0.170489 0.98536 0
vn 0 1 0
vn 3.23402e-007 3.23403e-007 1
vn 1.83351e-006 1.61701e-007 1
vn -6.63389e-008 -1 6.63389e-008
vn -6.63389e-008 -1 7.5221e-007
vn -0.170479 -0.985361 0
vn -0.170479 -0.985361 0
vn -1 0 0
vn 0.985358 0.170497 0
vn -0.170492 0 0.985359
vn -0.98536 0 0.170488
vn -0.98536 0 0.170488
vn 0 -0.98536 -0.170488
vn -0.98536 0.170485 0
vn -0.170492 0 -0.985359
vn 0.985358 0 -0.170498
vn 0 0.170494 -0.985359
vn -0.170492 0.985359 0
vn 0.985358 -0.170496 0
vn 0.985358 -0.170496 0
vn 0 -0.985359 0.170491
vn -0.98536 0 -0.170485
vn -0.98536 0 -0.170485
vn 0 0.170479 0.985361
vn 0 0.170479 0.985361
vn 0.170463 0 0.985364
vn 0 -0.170493 0.985359
vn 0 -0.170493 0.985359
vn 0.985358 0 0.1705
vn 0.985358 0 0.1705
vn 0 0.98536 -0.170489
vn 0 0.98536 -0.170489
vt 0.111544 0.888456
vt 0.888456 0.888456
vt 0.0967221 0.903278
vt 0.903278 0.903278
vt 0.888456 0.111544
vt 0.903278 0.0967221
vt 0.111544 0.111544
vt 0.0967221 0.0967221
vt 0 1
vt 0 -2.98023e-008
vt 1 1
vt 1 -2.98023e-008
mtllib Crate_LOD1.mtl
usemtl Crate
g Default
f 12/1/1 11/2/2 8/3/2
f 7/4/3 8/3/2 11/2/2
f 21/2/4 20/5/4 17/4/4
f 16/6/4 17/4/4 20/5/4
f 29/5/5 28/7/5 25/6/5
f 24/8/5 25/6/5 28/7/5
f 2/9/6 1/10/7 36/3/7
f 33/8/7 36/3/7 1/10/7
f 32/11/8 1/9/9 43/4/10
f 44/3/11 43/4/10 1/9/9
f 32/12/12 23/11/12 50/6/12
f 51/4/12 50/6/12 23/11/12
f 11/2/13 10/5/14 7/4/14
f 6/6/14 7/4/14 10/5/14
f 20/5/15 19/7/15 16/6/15
f 15/8/16 16/6/15 19/7/15
f 14/9/17 23/10/17 27/3/17
f 24/8/17 27/3/17 23/10/17
f 13/11/18 2/9/6 35/4/19
f 36/3/7 35/4/19 2/9/6
f 23/12/20 32/11/8 42/6/21
f 43/4/10 42/6/21 32/11/8
f 32/12/12 50/6/12 13/10/12
f 49/8/12 13/10/12 50/6/12
f 10/5/22 9/7/23 6/6/23
f 5/8/23 6/6/23 9/7/23
f 3/9/24 2/10/24 18/3/24
f 15/8/24 18/3/24 2/10/24
f 3/11/17 14/9/17 26/4/17
f 27/3/17 26/4/17 14/9/17
f 32/12/25 13/11/18 34/6/26
f 35/4/19 34/6/26 13/11/18
f 4/10/27 23/12/20 41/8/28
f 42/6/21 41/8/28 23/12/20
f 53/7/12 54/5/12 56/1/12
f 55/2/12 56/1/12 54/5/12
f 53/7/29 56/1/30 49/8/30
f 52/3/30 49/8/30 56/1/30
f 3/9/31 4/10/31 8/3/31
f 5/8/31 8/3/31 4/10/31
f 14/11/24 3/9/24 17/4/24
f 18/3/24 17/4/24 3/9/24
f 4/12/17 3/11/17 25/6/17
f 26/4/17 25/6/17 3/11/17
f 32/12/25 34/6/26 1/10/7
f 33/8/7 1/10/7 34/6/26
f 45/7/11 46/5/11 48/1/11
f 47/2/11 48/1/11 46/5/11
f 45/7/32 48/1/32 41/8/32
f 44/3/32 41/8/32 48/1/32
f 56/1/33 55/2/33 52/3/33
f 51/4/33 52/3/33 55/2/33
f 1/12/31 2/11/31 6/6/31
f 7/4/31 6/6/31 2/11/31
f 2/10/24 13/12/24 15/8/24
f 16/6/24 15/8/24 13/12/24
f 28/7/17 29/5/17 31/1/17
f 30/2/17 31/1/17 29/5/17
f 28/7/34 31/1/34 24/8/34
f 27/3/35 24/8/34 31/1/34
f 40/1/36 39/2/36 36/3/36
f 35/4/36 36/3/36 39/2/36
f 47/2/37 46/5/37 43/4/37
f 42/6/37 43/4/37 46/5/37
f 54/5/38 53/7/38 50/6/38
f 49/8/38 50/6/38 53/7/38
f 2/11/31 3/9/31 7/4/31
f 8/3/31 7/4/31 3/9/31
f 13/12/24 14/11/24 16/6/24
f 17/4/24 16/6/24 14/11/24
f 23/10/17 4/12/17 24/8/17
f 25/6/17 24/8/17 4/12/17
f 37/7/7 38/5/7 40/1/7
f 39/2/7 40/1/7 38/5/7
f 37/7/39 40/1/39 33/8/39
f 36/3/39 33/8/39 40/1/39
f 48/1/40 47/2/40 44/3/40
f 43/4/40 44/3/40 47/2/40
f 55/2/41 54/5/41 51/4/41
f 50/6/41 51/4/41 54/5/41
f 4/10/31 1/12/31 5/8/31
f 6/6/31 5/8/31 1/12/31
f 19/7/24 20/5/24 22/1/24
f 21/2/24 22/1/24 20/5/24
f 19/7/42 22/1/42 15/8/42
f 18/3/43 15/8/42 22/1/42
f 31/1/44 30/2/44 27/3/44
f 26/4/44 27/3/44 30/2/44
f 39/2/45 38/5/46 35/4/46
f 34/6/46 35/4/46 38/5/46
f 46/5/47 45/7/48 42/6/48
f 41/8/48 42/6/48 45/7/48
f 14/9/12 13/10/12 52/3/12
f 49/8/12 52/3/12 13/10/12
f 9/7/31 10/5/31 12/1/31
f 11/2/31 12/1/31 10/5/31
f 9/7/49 12/1/49 5/8/49
f 8/3/49 5/8/49 12/1/49
f 22/1/50 21/2/50 18/3/50
f 17/4/51 18/3/50 21/2/50
f 30/2/52 29/5/52 26/4/52
f 25/6/53 26/4/52 29/5/52
f 38/5/54 37/7/54 34/6/54
f 33/8/55 34/6/54 37/7/54
f 1/9/9 4/10/27 44/3/11
f 41/8/28 44/3/11 4/10/27
f 23/11/12 14/9/12 51/4/12
f 52/3/12 51/4/12 14/9/12
