# OBJ written from E:\3d\3D-Objekte\Cave creator\Textures\MushroomBrownMedium_LOD1.obj

o MushroomBrownMedium_LOD1
v 0.0441625 0.145077 -0.0341644
v 0.0154438 0.146509 -0.0486448
v -0.0159207 0.144183 -0.0415047
v -0.035241 0.13917 -0.0160845
v -0.033401 0.133722 0.0157193
v -0.0112602 0.130389 0.0390271
v 0.0207904 0.130766 0.0429324
v 0.0476566 0.134795 0.0256083
v 0.0569191 0.14041 -0.00484011
v 0.0669875 0.15288 -0.0601604
v 0.0141325 0.155272 -0.0869151
v -0.0433728 0.15043 -0.073721
v -0.0786737 0.140686 -0.0267526
v -0.0752011 0.130534 0.032014
v -0.0345937 0.124741 0.0750814
v 0.0241324 0.126039 0.0822971
v 0.0734946 0.133822 0.0502852
v 0.0905081 0.144315 -0.00597498
v 0.0812962 0.164661 -0.0765064
v 0.0122627 0.167758 -0.111463
v -0.0629184 0.161489 -0.0942256
v -0.109071 0.148793 -0.0328573
v -0.104543 0.135541 0.0439254
v -0.0514618 0.127941 0.100195
v 0.0253132 0.12958 0.109623
v 0.0898191 0.139737 0.0677977
v 0.111949 0.153568 -0.00571034
v 0.0863197 0.176376 -0.0811692
v 0.0116393 0.179679 -0.119007
v -0.0697193 0.172874 -0.100348
v -0.119681 0.159139 -0.033923
v -0.11479 0.144804 0.0491855
v -0.0573185 0.136561 0.110091
v 0.0257733 0.138346 0.120296
v 0.0955608 0.149378 0.0750248
v 0.119459 0.164414 -0.0045397
v 0.0802275 0.189799 -0.0731393
v 0.0112369 0.192842 -0.108097
v -0.0638995 0.186521 -0.0908586
v -0.110022 0.173789 -0.0294902
v -0.105496 0.160538 0.0472919
v -0.0524292 0.152956 0.103562
v 0.0243023 0.154646 0.112989
v 0.0887665 0.164855 0.0711642
v 0.11084 0.178753 -0.00234327
v 0.0620976 0.201845 -0.0539037
v 0.00916567 0.204329 -0.0806584
v -0.048472 0.199648 -0.0674637
v -0.083845 0.189991 -0.0204959
v -0.0803921 0.179862 0.0382713
v -0.039725 0.173998 0.0813381
v 0.0191173 0.175155 0.0885544
v 0.0685939 0.182799 0.0565419
v 0.0855657 0.193343 0.000282314
v 0.0332537 0.211626 -0.025899
v 0.00447597 0.21313 -0.0403788
v -0.0268755 0.210787 -0.0332393
v -0.0461313 0.205695 -0.00781915
v -0.04428 0.200234 0.0239853
v -0.0221881 0.196961 0.0472931
v 0.00980642 0.197407 0.0511984
v 0.0367328 0.201363 0.0338743
v 0.0459936 0.206979 0.00342527
v 0.0122448 0.139495 -0.00263712
v -0.00133905 0.209066 0.00583925
v 0.00432458 -0.0059554 -0.0251438
v 0.0122448 0.150363 -0.00263772
v 0.00382509 0.148631 -0.000213597
v 0.0038382 0.146178 0.00818231
v 0.0122633 0.146397 0.010948
v 0.0174579 0.148985 0.00426092
v 0.0140103 0.147818 -0.0106194
v -0.00170264 0.144694 -0.00605664
v -0.00167999 0.1402 0.00964322
v 0.0140425 0.140561 0.0147841
v 0.0237378 0.145271 0.00226357
v 0.0153181 0.127996 -0.0211152
v -0.00234757 0.124758 -0.0158312
v -0.0022969 0.120098 0.00204423
v 0.0153926 0.120467 0.0078074
v 0.0262776 0.125349 -0.00650367
v 0.0123474 0.0856879 -0.0350215
v -0.0070009 0.08277 -0.0289776
v -0.00679348 0.0787156 -0.00890753
v 0.0126978 0.0790731 -0.00256321
v 0.0245252 0.0833816 -0.0187
v 0.0111028 0.0213945 -0.0520762
v -0.0215993 0.019573 -0.0415196
v -0.0214085 0.016968 -0.00719449
v 0.0113979 0.0172215 0.00346937
v 0.0314781 0.0199829 -0.0242605
v 0.0104037 0.00101887 -0.0490894
v -0.0179568 0.000313967 -0.0398823
v -0.0179169 -0.000740104 -0.0100955
v 0.0104484 -0.00062637 -0.000879977
v 0.0279358 0.000497885 -0.0249698
v 0.0147864 0.111698 -0.0276973
v -0.00353966 0.108533 -0.022107
v -0.00343058 0.104001 -0.00337562
v 0.014961 0.10437 0.00261047
v 0.0262168 0.109126 -0.0124194
v 0.0110969 0.0607753 -0.0434228
v -0.0144467 0.0573239 -0.0354542
v -0.0143353 0.0523962 -0.00876925
v 0.0115493 0.0528004 -0.000351284
v 0.0271472 0.0579807 -0.0219097
vn 0.0450187 -0.979653 -0.195587
vn 0.0637164 -0.979914 -0.18897
vn 0.0336271 -0.984706 -0.170946
vn 0.0292646 -0.981846 -0.187407
vn 0.0257433 -0.983959 -0.176525
vn 0.0269803 -0.984937 -0.170794
vn 0.0282261 -0.98607 -0.16392
vn 0.0383655 -0.9873 -0.154163
vn 0.0572417 -0.986554 -0.153083
vn 0.0690191 -0.983296 -0.168423
vn 0.137568 0.989985 -0.0316862
vn -0.0316379 0.994595 -0.0988923
vn -0.0347841 0.984769 0.170353
vn -0.204753 0.97795 -0.0411063
vn -0.295433 0.948563 0.113789
vn -0.261262 0.921505 0.28735
vn -0.124843 0.909089 0.397455
vn 0.0485846 0.915609 0.399125
vn 0.184354 0.937976 0.293625
vn 0.221423 0.967175 0.124678
vn 0.0262441 -0.999074 -0.0340797
vn -0.163161 -0.97237 -0.166957
vn 0.0948608 -0.961984 -0.2561
vn -0.162607 -0.981624 0.0998674
vn 0.0957768 -0.977022 0.190409
vn 0.263728 -0.964037 -0.0328726
vn 0.222693 -0.957424 -0.183704
vn 0.22229 -0.974041 -0.0427992
vn 0.501716 -0.819921 0.275701
vn 0.152525 -0.943722 0.293472
vn 0.0841293 -0.996141 -0.0250034
vn 0.210208 -0.75957 0.615521
vn -0.167215 -0.932615 0.319794
vn -0.370509 -0.797754 0.475722
vn -0.298301 0.42825 0.853006
vn -0.399273 0.624123 0.671603
vn -0.763792 0.499617 0.408663
vn -0.628005 0.700248 0.339503
vn -0.683141 0.728278 -0.0541291
vn -0.463779 0.885417 0.030771
vn -0.432984 0.840364 0.326057
vn -0.274338 0.930107 -0.244213
vn -0.284878 0.464356 0.838581
vn -0.285701 0.466522 0.837098
vn -0.286523 0.468683 0.835608
vn -0.324038 0.307293 -0.894746
vn -0.326118 0.310329 -0.892941
vn -0.325044 0.295172 -0.898454
vn -0.327055 0.336617 -0.88302
vn 0.808939 -0.0970483 0.579827
vn 0.809503 -0.0176477 0.58685
vn 0.805772 0.0429404 0.590667
vn 0.805717 0.0257387 0.591742
vn -0.994064 0.104328 0.0308733
vn -0.996113 0.084287 0.0255972
vn -0.9985 0.0520544 0.0169883
vn -0.999138 0.0394579 0.0128862
vn 0.802517 0.137122 -0.580658
vn 0.802185 0.146017 -0.578946
vn 0.803558 0.122618 -0.58246
vn 0.803683 0.122172 -0.582381
vn -0.0117265 -0.999696 -0.0216646
vn 0.0835406 -0.969046 0.232317
vn -0.619321 -0.770562 0.150588
vn -0.490146 -0.868053 0.0789949
vn -0.778404 0.582695 -0.233565
vn -0.479548 0.752065 -0.452141
vn 0.0753671 0.953372 -0.292236
vn -0.698776 0.687452 0.197794
vn -0.696552 0.688971 0.200336
vn -0.694318 0.690481 0.202875
vn 0.796144 0.245611 -0.553019
vn 0.783029 0.331051 -0.526565
vn 0.790503 0.288821 -0.540081
vn 0.783323 0.331323 -0.525957
vn -0.306784 -0.107464 0.945693
vn -0.309415 -0.00143644 0.950926
vn -0.308839 0.0999982 0.945843
vn -0.309344 0.0965449 0.946037
vn -0.329039 0.393607 -0.858374
vn -0.328926 0.394048 -0.858216
vn 0.81349 -0.0544607 0.579024
vn 0.815212 -0.12204 0.566158
vn -0.106044 -0.988612 -0.106776
vn -0.66423 -0.706416 -0.24449
vn -0.427543 -0.846236 -0.317949
vn -0.399733 0.631655 -0.664249
vn -0.116003 0.824245 -0.554224
vn 0.340101 0.933069 -0.117106
vn 0.403872 0.901286 0.156752
vn -0.278846 0.895376 -0.3472
vn -0.280445 0.896604 -0.342713
vn -0.282037 0.897811 -0.338218
vn 0.811495 -0.174565 0.557677
vn 0.809348 -0.145103 0.569123
vn 0.811312 -0.172916 0.558456
vn 0.807917 -0.144112 0.571403
vn -0.999984 -0.00174187 0.00542442
vn -0.999932 0.000344451 0.0116387
vn -0.975595 0.216294 0.0378242
vn -0.967558 0.246981 0.0532121
vn 0.806839 0.0475134 -0.588858
vn 0.806565 -0.0372018 -0.589974
vn 0.800025 -0.119198 -0.588007
vn 0.801326 -0.124377 -0.585156
vn -0.309465 0.00727032 0.950883
vn -0.30712 -0.0795605 0.948339
vn -0.0939238 -0.969661 -0.225689
vn -0.362686 -0.599962 -0.713095
vn -0.229676 -0.820886 -0.522872
vn 0.188935 0.630026 -0.75324
vn -0.0304632 0.803726 -0.594219
vn 0.357706 0.811142 -0.462704
vn 0.459505 0.842887 -0.279993
vn 0.702106 0.707782 0.0780532
vn 0.328874 0.852138 0.407065
vn -0.289626 -0.30165 0.908363
vn -0.287973 -0.316522 0.903817
vn -0.286185 -0.331257 0.899092
vn -0.286331 -0.331375 0.899003
vn -0.308907 0.0382909 -0.950321
vn -0.311735 0.0372319 -0.949439
vn -0.319351 0.263001 -0.91041
vn -0.319615 0.265196 -0.90968
vn 0.803096 -0.174607 0.569693
vn 0.799763 -0.181957 0.572076
vn -0.973482 0.222879 0.051552
vn -0.983538 0.17484 0.0456449
vn -0.0321096 -0.950606 -0.308734
vn 0.120892 -0.52627 -0.84168
vn 0.104968 -0.734428 -0.67052
vn 0.695892 0.574014 -0.431557
vn 0.428087 0.74768 -0.507658
vn 0.041945 0.728047 -0.684243
vn 0.858919 0.510912 0.0350259
vn 0.551838 0.689904 -0.468515
vn 0.48811 0.67586 0.552234
vn 0.0744505 0.820344 0.567003
vn -0.999581 0.0273147 0.00960581
vn -0.999588 0.0271895 0.00922516
vn 0.80422 0.127593 -0.580474
vn 0.80301 0.16519 -0.572615
vn -0.300969 -0.211189 0.929955
vn -0.301216 -0.211707 0.929757
vn 0.0579739 -0.946317 -0.318
vn 0.456495 -0.721386 -0.520783
vn 0.596923 -0.504124 -0.624133
vn 0.820843 -0.552922 -0.143156
vn 0.625628 -0.761801 -0.168073
vn 0.672683 0.443163 0.592541
vn 0.111417 0.584515 0.803697
vn -0.221981 0.81575 0.534113
vn -0.329653 0.424444 -0.843313
vn -0.329302 0.424248 -0.843548
vn 0.814319 -0.190346 0.548318
vn 0.812977 -0.196273 0.54822
vn -0.981843 -0.189562 -0.00709895
vn -0.981265 -0.192582 -0.00549936
vn 0.200832 -0.927622 -0.314934
vn 0.717634 -0.636504 0.282601
vn 0.174537 0.415833 0.892535
vn 0.460437 0.870145 -0.17563
vn 0.460145 0.870515 -0.174558
vn 0.459851 0.870884 -0.173487
vn -0.299211 -0.205984 0.931688
vn -0.295478 -0.246616 0.92297
vn -0.30047 -0.132929 -0.944483
vn -0.30276 -0.13744 -0.943105
vn 0.227099 -0.899002 0.37446
vn 0.534535 0.566631 0.627058
vn 0.529502 0.570089 0.628193
vn 0.524448 0.573525 0.629303
vt 0.65875 0.568417
vt 0.658749 0.453544
vt 0.742794 0.510983
vt 0.698075 0.656415
vt 0.758326 0.676365
vt 0.811308 0.618928
vt 0.832233 0.510981
vt 0.811308 0.403035
vt 0.758325 0.345599
vt 0.698075 0.365545
vt 0.318088 0.447181
vt 0.318088 0.55282
vt 0.243407 0.500001
vt 0.283143 0.633747
vt 0.229605 0.652091
vt 0.182526 0.599271
vt 0.163932 0.5
vt 0.182526 0.40073
vt 0.229606 0.34791
vt 0.283144 0.366253
vt 0.214621 0
vt 0.142813 0.0622668
vt 0.0949417 0.0622668
vt 0.190685 0.0622668
vt 0.238557 0.0622668
vt 0.286429 0.0622668
vt 0.3343 0.0622668
vt 0.660164 0.242254
vt 0.771492 0.205395
vt 0.780289 0.111712
vt 0.908201 0.250377
vt 0.869391 0.311524
vt 0.950269 0.182406
vt 0.958719 0.510981
vt 1.01396 0.510981
vt 0.00950253 0.500002
vt 0.051539 0.5
vt 0.0644015 0.793107
vt 0.0964276 0.739658
vt 0.210088 0.867177
vt 0.217907 0.781026
vt 0.130914 0.683425
vt 0.316831 0.747129
vt 0.238557 0.874685
vt 0.238557 1
vt 0.190685 0.874685
vt 0.190685 1
vt 0.142813 0.505404
vt 0.142813 0.637832
vt 0.0949417 0.505404
vt 0.0949417 0.637897
vt 0.238557 0.235198
vt 0.286429 0.235198
vt 0.238557 0.375782
vt 0.286429 0.379341
vt 0.190685 0.637739
vt 0.142813 0.721569
vt 0.190685 0.721569
vt 0.3343 0.381377
vt 0.286429 0.505404
vt 0.3343 0.505404
vt 0.908054 0.510981
vt 0.95027 0.839554
vt 0.908202 0.771583
vt 0.20341 0.949064
vt 0.33934 0.822891
vt 0.381399 0.5976
vt 0.142813 0.874685
vt 0.142813 1
vt 0.3343 0.721569
vt 0.3343 0.874685
vt 0.286429 0.721569
vt 0.286429 0.874685
vt 0.190685 0.235198
vt 0.190685 0.375639
vt 0.0949417 0.721569
vt 0.238557 0.505404
vt 0.869391 0.710437
vt 0.788996 1.01439
vt 0.780289 0.910249
vt 0.361486 0.894901
vt 0.423702 0.62752
vt 0.381399 0.4024
vt 0.316831 0.252872
vt 0.0949417 0.874685
vt 0.0949417 1
vt 0.238557 0.721569
vt 0.142813 0.235198
vt 0.142813 0.379113
vt 0.3343 0.235198
vt 0.190685 0.505404
vt 0.771491 0.816566
vt 0.6056 0.953668
vt 0.634833 0.862092
vt 0.464663 0.655959
vt 0.423702 0.37248
vt 0.33934 0.177111
vt 0.217906 0.218977
vt 0.0949417 0.235198
vt 0.0949417 0.381377
vt 0.660164 0.779709
vt 0.485897 0.68581
vt 0.539892 0.649646
vt 0.464662 0.344043
vt 0.361486 0.105101
vt 0.21009 0.132823
vt 0.130914 0.316575
vt 0.3343 0.637897
vt 0.286429 0.637843
vt 0.587499 0.617111
vt 0.539892 0.372316
vt 0.485897 0.336152
vt 0.6056 0.0682961
vt 0.634832 0.159872
vt 0.203409 0.0509363
vt 0.0964283 0.260343
vt 0.0965586 0.500001
vt 0.238557 0.637746
vt 0.587499 0.40485
vt 0.788995 0.00757515
vt 0.0644015 0.206893
vt 0.3343 1
vt 0.286429 1
mtllib MushroomBrownMedium_LOD1.mtl
usemtl MushroomBrown
g Default
f 2/1/1 1/2/2 64/3/3
f 3/4/4 2/1/1 64/3/3
f 4/5/5 3/4/4 64/3/3
f 5/6/6 4/5/5 64/3/3
f 6/7/7 5/6/6 64/3/3
f 7/8/8 6/7/7 64/3/3
f 8/9/9 7/8/8 64/3/3
f 9/10/10 8/9/9 64/3/3
f 1/2/2 9/10/10 64/3/3
f 55/11/11 56/12/12 65/13/13
f 56/12/12 57/14/14 65/13/13
f 57/14/14 58/15/15 65/13/13
f 58/15/15 59/16/16 65/13/13
f 59/16/16 60/17/17 65/13/13
f 60/17/17 61/18/18 65/13/13
f 61/18/18 62/19/19 65/13/13
f 62/19/19 63/20/20 65/13/13
f 63/20/20 55/11/11 65/13/13
f 66/21/21 93/22/22 92/23/23
f 66/21/21 94/24/24 93/22/22
f 66/21/21 95/25/25 94/24/24
f 66/21/21 96/26/26 95/25/25
f 66/21/21 92/27/23 96/26/26
f 18/28/27 17/29/28 9/10/10
f 8/9/9 9/10/10 17/29/28
f 26/30/29 25/31/30 17/29/28
f 16/32/31 17/29/28 25/31/30
f 25/31/30 34/33/32 24/34/33
f 33/35/34 24/34/33 34/33/32
f 33/36/35 42/37/36 32/38/37
f 41/39/38 32/38/37 42/37/36
f 40/40/39 41/39/38 49/41/40
f 50/42/41 49/41/40 41/39/38
f 48/43/42 49/41/40 57/14/14
f 58/15/15 57/14/14 49/41/40
f 75/44/43 70/45/44 74/46/44
f 69/47/45 74/46/44 70/45/44
f 83/48/46 98/49/47 82/50/48
f 97/51/49 82/50/48 98/49/47
f 90/52/50 91/53/51 105/54/52
f 106/55/53 105/54/52 91/53/51
f 98/49/54 99/56/55 78/57/56
f 79/58/57 78/57/56 99/56/55
f 106/55/58 102/59/59 86/60/60
f 82/61/61 86/60/60 102/59/59
f 17/29/28 16/32/31 8/9/9
f 7/8/8 8/9/9 16/32/31
f 24/34/33 15/62/62 25/31/63
f 16/32/31 25/31/63 15/62/62
f 32/63/64 23/64/65 33/35/34
f 24/34/33 33/35/34 23/64/65
f 31/65/66 32/38/37 40/40/39
f 41/39/38 40/40/39 32/38/37
f 39/66/67 40/40/39 48/43/42
f 49/41/40 48/43/42 40/40/39
f 47/67/68 48/43/42 56/12/12
f 57/14/14 56/12/12 48/43/42
f 73/68/69 74/46/70 68/69/70
f 69/47/71 68/69/70 74/46/70
f 77/70/72 72/71/73 81/72/74
f 76/73/75 81/72/74 72/71/73
f 89/74/76 90/52/77 104/75/78
f 105/54/79 104/75/78 90/52/77
f 98/49/47 78/57/80 97/51/49
f 77/76/81 97/51/49 78/57/80
f 105/54/52 106/55/53 85/77/82
f 86/60/83 85/77/82 106/55/53
f 16/32/31 15/62/62 7/8/8
f 6/7/7 7/8/8 15/62/62
f 23/64/65 14/78/84 24/34/33
f 15/62/62 24/34/33 14/78/84
f 32/63/64 31/79/85 23/64/65
f 22/80/86 23/64/65 31/79/85
f 30/81/87 31/65/66 39/66/67
f 40/40/39 39/66/67 31/65/66
f 39/66/67 48/43/42 38/82/88
f 47/67/68 38/82/88 48/43/42
f 46/83/89 47/67/68 55/11/11
f 56/12/12 55/11/11 47/67/68
f 54/84/90 46/83/89 63/20/20
f 55/11/11 63/20/20 46/83/89
f 72/85/91 73/68/92 67/86/92
f 68/69/93 67/86/92 73/68/92
f 81/72/94 76/73/95 80/87/96
f 75/44/97 80/87/96 76/73/95
f 88/88/98 89/74/99 103/89/100
f 104/75/101 103/89/100 89/74/99
f 87/90/102 91/53/103 92/27/104
f 96/26/105 92/27/104 91/53/103
f 104/75/78 105/54/79 84/91/106
f 85/77/107 84/91/106 105/54/79
f 15/62/62 14/78/84 6/7/7
f 5/6/6 6/7/7 14/78/84
f 23/64/65 22/80/86 14/78/84
f 13/92/108 14/78/84 22/80/86
f 31/79/85 30/93/109 22/80/86
f 21/94/110 22/80/86 30/93/109
f 29/95/111 30/81/87 38/82/112
f 39/66/67 38/82/112 30/81/87
f 38/82/112 47/67/68 37/96/113
f 46/83/89 37/96/113 47/67/68
f 37/96/114 46/83/89 45/97/115
f 54/84/90 45/97/115 46/83/89
f 53/98/116 54/84/90 62/19/19
f 63/20/20 62/19/19 54/84/90
f 79/58/117 80/87/118 74/46/119
f 75/44/120 74/46/119 80/87/118
f 87/99/121 88/88/122 102/100/123
f 103/89/124 102/100/123 88/88/122
f 91/53/51 90/52/50 96/26/125
f 95/25/126 96/26/125 90/52/50
f 103/89/100 104/75/101 83/48/127
f 84/91/128 83/48/127 104/75/101
f 14/78/84 13/92/108 5/6/6
f 4/5/5 5/6/6 13/92/108
f 22/80/86 21/94/110 13/92/108
f 12/101/129 13/92/108 21/94/110
f 29/102/130 20/103/131 30/93/109
f 21/94/110 30/93/109 20/103/131
f 28/104/132 29/95/111 37/96/133
f 38/82/134 37/96/133 29/95/111
f 36/105/135 28/104/132 45/97/115
f 37/96/136 45/97/115 28/104/132
f 44/106/137 45/97/115 53/98/116
f 54/84/90 53/98/116 45/97/115
f 52/107/138 53/98/116 61/18/18
f 62/19/19 61/18/18 53/98/116
f 78/57/56 79/58/57 73/68/139
f 74/46/140 73/68/139 79/58/57
f 82/61/61 97/108/141 86/60/60
f 101/109/142 86/60/60 97/108/141
f 90/52/77 89/74/76 95/25/143
f 94/24/144 95/25/143 89/74/76
f 103/89/124 83/48/46 102/100/123
f 82/50/48 102/100/123 83/48/46
f 13/92/108 12/101/129 4/5/5
f 3/4/4 4/5/5 12/101/129
f 21/94/110 20/103/131 12/101/129
f 11/110/145 12/101/129 20/103/131
f 19/111/146 20/103/131 28/112/147
f 29/102/130 28/112/147 20/103/131
f 36/113/148 27/114/149 28/112/147
f 19/111/146 28/112/147 27/114/149
f 36/105/135 45/97/115 35/115/150
f 44/106/137 35/115/150 45/97/115
f 43/116/151 44/106/137 52/107/138
f 53/98/116 52/107/138 44/106/137
f 51/117/152 52/107/138 60/17/17
f 61/18/18 60/17/17 52/107/138
f 77/76/81 78/57/80 72/85/153
f 73/68/154 72/85/153 78/57/80
f 85/77/82 86/60/83 100/118/155
f 101/109/156 100/118/155 86/60/83
f 88/88/98 93/22/157 89/74/99
f 94/24/158 89/74/99 93/22/157
f 97/108/141 77/70/72 101/109/142
f 81/72/74 101/109/142 77/70/72
f 12/101/129 11/110/145 3/4/4
f 2/1/1 3/4/4 11/110/145
f 19/111/146 10/119/159 20/103/131
f 11/110/145 20/103/131 10/119/159
f 19/111/146 27/114/149 10/119/159
f 18/28/27 10/119/159 27/114/149
f 36/113/148 35/120/160 27/114/149
f 26/30/29 27/114/149 35/120/160
f 34/121/161 35/115/150 43/116/151
f 44/106/137 43/116/151 35/115/150
f 42/37/36 43/116/151 51/117/152
f 52/107/138 51/117/152 43/116/151
f 50/42/41 51/117/152 59/16/16
f 60/17/17 59/16/16 51/117/152
f 72/71/162 67/122/163 76/73/163
f 71/123/164 76/73/163 67/122/163
f 84/91/106 85/77/107 99/56/165
f 100/118/166 99/56/165 85/77/107
f 87/99/121 92/23/167 88/88/122
f 93/22/168 88/88/122 92/23/167
f 100/118/155 101/109/156 80/87/96
f 81/72/94 80/87/96 101/109/156
f 11/110/145 10/119/159 2/1/1
f 1/2/2 2/1/1 10/119/159
f 10/119/159 18/28/27 1/2/2
f 9/10/10 1/2/2 18/28/27
f 26/30/29 17/29/28 27/114/149
f 18/28/27 27/114/149 17/29/28
f 35/120/160 34/33/32 26/30/29
f 25/31/169 26/30/29 34/33/32
f 34/121/161 43/116/151 33/36/35
f 42/37/36 33/36/35 43/116/151
f 41/39/38 42/37/36 50/42/41
f 51/117/152 50/42/41 42/37/36
f 49/41/40 50/42/41 58/15/15
f 59/16/16 58/15/15 50/42/41
f 76/73/170 71/123/171 75/44/171
f 70/45/172 75/44/171 71/123/171
f 83/48/127 84/91/128 98/49/54
f 99/56/55 98/49/54 84/91/128
f 91/53/103 87/90/102 106/55/58
f 102/59/59 106/55/58 87/90/102
f 99/56/165 100/118/166 79/58/117
f 80/87/118 79/58/117 100/118/166
