# OBJ written from E:\3d\3D-Objekte\Cave creator\Textures\MushroomBrownBig_LOD1.obj

o MushroomBrownBig_LOD1
v 0.0431525 0.530317 -0.0208324
v 0.0198631 0.530574 -0.0432399
v -0.0123826 0.530822 -0.0454342
v -0.0384934 0.530946 -0.0263881
v -0.0462533 0.530887 0.00498699
v -0.0320321 0.530673 0.0340085
v -0.00248191 0.530404 0.047099
v 0.0285674 0.530206 0.0381314
v 0.0465911 0.530172 0.0113034
v 0.0790077 0.514894 -0.0385166
v 0.0359725 0.515369 -0.0799198
v -0.0236077 0.515828 -0.0839725
v -0.0718545 0.516056 -0.0487812
v -0.0861947 0.515947 0.00919083
v -0.0599168 0.515551 0.0628178
v -0.00531623 0.515055 0.0870053
v 0.0520568 0.514689 0.0704373
v 0.0853591 0.514626 0.0208631
v 0.103006 0.510094 -0.0503101
v 0.046778 0.510715 -0.104407
v -0.031067 0.511314 -0.109704
v -0.0941048 0.511613 -0.0637226
v -0.11284 0.51147 0.0120229
v -0.0785073 0.510954 0.0820881
v -0.00716865 0.510305 0.113689
v 0.067794 0.509827 0.0920422
v 0.111304 0.509744 0.0272725
v 0.111503 0.517853 -0.0544185
v 0.0506446 0.518525 -0.112971
v -0.033616 0.519174 -0.118703
v -0.101848 0.519497 -0.0689334
v -0.122128 0.519342 0.013052
v -0.0849641 0.518783 0.0888905
v -0.00774772 0.518081 0.123095
v 0.0733909 0.517563 0.0996647
v 0.120486 0.517474 0.0295583
v 0.103229 0.539959 -0.0501987
v 0.0470008 0.540579 -0.104296
v -0.0308434 0.541179 -0.109592
v -0.0938821 0.541477 -0.0636119
v -0.112618 0.541335 0.0121334
v -0.0782838 0.540818 0.0821988
v -0.00694587 0.540169 0.113801
v 0.0680175 0.539691 0.0921528
v 0.111528 0.539608 0.0273846
v 0.0794029 0.567929 -0.0383182
v 0.0363677 0.568403 -0.0797222
v -0.0232125 0.568862 -0.0837749
v -0.0714593 0.569091 -0.0485835
v -0.0857987 0.568982 0.00938991
v -0.0595208 0.568586 0.0630146
v -0.00492103 0.56809 0.0872029
v 0.052452 0.567724 0.0706334
v 0.0857543 0.56766 0.0210614
v 0.0436233 0.593483 -0.0205967
v 0.0203338 0.59374 -0.043005
v -0.0119126 0.593988 -0.0451992
v -0.0380227 0.594112 -0.0261531
v -0.0457833 0.594052 0.0052228
v -0.0315621 0.593838 0.0342442
v -0.00201194 0.59357 0.0473348
v 0.0290374 0.593372 0.0383672
v 0.0470618 0.593337 0.0115392
v 0.000791861 0.539398 -7.95566e-006
v 0.00125115 0.60109 0.000221671
v 0.032019 -0.0146513 -0.085651
v -0.00194251 0.546192 -0.00869094
v -0.0101128 0.546156 -0.00532871
v -0.00945366 0.545278 0.00343749
v -0.000875926 0.544771 0.00549206
v 0.00376504 0.545335 -0.00200382
v -0.00167472 0.529377 -0.0165378
v -0.016903 0.529427 -0.0102573
v -0.015667 0.527948 0.00610241
v 0.000325703 0.526984 0.0099309
v 0.00897133 0.527867 -0.00405913
v 0.00848305 0.452941 -0.0391925
v -0.00894325 0.449423 -0.0339244
v -0.0086602 0.444648 -0.0160114
v 0.00893929 0.445216 -0.0102092
v 0.0195327 0.450341 -0.0245349
v 0.0268226 0.263731 -0.0807453
v 0.00742638 0.26142 -0.0745945
v 0.00753624 0.258283 -0.0543582
v 0.0269973 0.258656 -0.0480044
v 0.0389144 0.262023 -0.0643108
v 0.0385322 0.0488816 -0.112457
v 0.0057296 0.047999 -0.10181
v 0.00573876 0.0468012 -0.0673313
v 0.0385474 0.0469439 -0.0566722
v 0.0588104 0.0482294 -0.0845592
v 0.038153 6.75321e-005 -0.109719
v 0.00978768 -0.000109702 -0.100502
v 0.00978844 -0.000350118 -0.0706783
v 0.0381545 -0.000321627 -0.061465
v 0.0556808 -6.34491e-005 -0.0855922
v 0.016661 0.380369 -0.0576755
v -0.00152748 0.377222 -0.0520671
v -0.00131156 0.372946 -0.0332561
v 0.0170104 0.373451 -0.0272411
v 0.028115 0.378038 -0.042332
v 0.0336196 0.165851 -0.098463
v 0.00805581 0.162099 -0.090478
v 0.00809624 0.156728 -0.0637523
v 0.0339614 0.157153 -0.0553264
v 0.0496192 0.162789 -0.0769222
vn -0.147232 -0.957304 0.248782
vn -0.276656 -0.955784 0.0996945
vn -0.00744926 -0.999965 -0.00372377
vn 0.047747 -0.958871 0.279799
vn 0.217047 -0.959754 0.17822
vn 0.281449 -0.959539 -0.00841795
vn 0.210823 -0.958327 -0.192775
vn 0.0382114 -0.956685 -0.288606
vn -0.155614 -0.95538 -0.251065
vn -0.279966 -0.955024 -0.0977107
vn 0.338357 0.918875 -0.202937
vn 0.128164 0.921053 -0.367743
vn 0.00744904 0.999965 0.00372385
vn -0.138796 0.923008 -0.358875
vn -0.3376 0.923827 -0.180472
vn -0.375227 0.923121 0.0839727
vn -0.234077 0.921226 0.310727
vn 0.0198166 0.919028 0.393694
vn 0.267639 0.91755 0.29406
vn 0.393439 0.917492 0.0584306
vn -0.379084 -0.878006 -0.292235
vn -0.172126 -0.820254 -0.545487
vn -0.336624 -0.941614 -0.00685667
vn -0.379453 -0.882095 0.279148
vn -0.172652 -0.827586 0.534128
vn 0.491299 -0.7983 0.348343
vn 0.490175 -0.793621 -0.360408
vn -0.255429 -0.965735 -0.0459553
vn -0.171904 -0.962333 -0.210627
vn -0.125308 -0.983554 -0.130071
vn 0.00432164 -0.984566 -0.174962
vn -0.0137852 -0.957729 -0.287341
vn -0.0491227 -0.771281 0.634596
vn -0.448712 -0.767636 0.457595
vn -0.0491233 -0.77128 0.634598
vn -0.448736 -0.767616 0.457605
vn -0.91179 0.398459 0.0993424
vn -0.710904 0.392719 0.583426
vn -0.824227 0.558948 0.0907021
vn -0.498102 0.551551 0.669093
vn -0.627835 0.557025 -0.543642
vn -0.524575 0.780357 -0.340388
vn -0.607157 0.794055 0.0289196
vn -0.179839 0.778756 -0.600997
vn -0.234068 -0.0231342 0.971945
vn -0.248443 -0.0205618 0.968428
vn -0.2144 0.222929 0.950965
vn -0.214596 0.222818 0.950947
vn -0.315224 0.152716 -0.936649
vn -0.315206 0.152747 -0.93665
vn -0.317209 0.171693 -0.932684
vn -0.318796 0.185763 -0.929441
vn 0.808917 -0.0349002 0.586886
vn 0.808418 -0.00440261 0.588592
vn 0.807429 0.0215503 0.589572
vn 0.80677 0.0166626 0.590631
vn -0.99646 -0.0837129 -0.00777122
vn -0.995757 -0.0915547 -0.00924578
vn -0.995101 -0.0982918 -0.0106082
vn -0.994984 -0.0988889 0.0150801
vn 0.804664 0.131607 -0.578961
vn 0.804662 0.131658 -0.578952
vn 0.802073 0.17112 -0.572186
vn 0.801996 0.171148 -0.572286
vn 0.126676 -0.985495 -0.112927
vn 0.152908 -0.964296 -0.216224
vn -0.640987 -0.764785 0.0651145
vn -0.641027 -0.764751 0.0651198
vn -0.817867 0.397206 -0.416318
vn -0.169133 0.586621 -0.792004
vn 0.251743 0.775465 -0.579033
vn -0.997211 0.0516149 0.0539142
vn -0.974574 0.203806 0.0931083
vn -0.931369 0.349065 0.103467
vn -0.930875 0.349908 0.10505
vn 0.794686 0.244074 -0.55579
vn 0.75829 0.278795 -0.589297
vn 0.77958 0.254385 -0.572315
vn 0.747192 0.277597 -0.603858
vn -0.308216 -0.0590089 0.949485
vn -0.30839 -0.0590085 0.949428
vn -0.308565 -0.046071 0.950087
vn -0.308155 -0.0677823 0.948918
vn -0.321424 0.209565 -0.923455
vn -0.338309 0.21951 -0.915075
vn 0.808845 -0.0115187 0.587909
vn 0.808472 -0.0118029 0.588416
vn 0.165553 -0.9862 -0.00122232
vn 0.252129 -0.965603 -0.0635753
vn -0.577582 -0.761576 -0.293942
vn -0.491416 -0.761708 -0.42227
vn -0.252295 0.397125 -0.882405
vn 0.382091 0.530654 -0.75658
vn 0.568238 0.772011 -0.284789
vn 0.624793 0.758542 0.185058
vn -0.349209 0.284355 -0.892858
vn -0.358367 0.339106 -0.869816
vn -0.350564 0.392292 -0.850419
vn -0.351407 0.392983 -0.849751
vn 0.811055 -0.0460021 0.583159
vn 0.836136 0.0727921 0.54367
vn 0.824799 -0.0434144 0.563757
vn 0.846206 0.0743879 0.527637
vn -0.998775 -0.0494762 -0.000771808
vn -0.999927 0.011899 0.00230204
vn -0.999897 -0.0143109 0.00128498
vn -0.999991 0.00241857 0.00341208
vn 0.808826 0.0322606 -0.587163
vn 0.808893 0.0320984 -0.587079
vn 0.808064 -0.0395355 -0.587767
vn 0.808299 -0.0398156 -0.587424
vn -0.304645 -0.142407 0.94176
vn -0.304731 -0.142435 0.941728
vn 0.12353 -0.986299 0.109339
vn 0.230019 -0.96611 0.117142
vn -0.182997 -0.76558 -0.616766
vn -0.182997 -0.765559 -0.616791
vn 0.375535 0.392309 -0.839683
vn 0.792653 0.545434 -0.272402
vn 0.812832 0.546319 0.202085
vn 0.315181 0.768543 0.55678
vn -0.295423 -0.253856 0.921022
vn -0.276851 -0.25927 0.925274
vn -0.309219 0.0243167 -0.95068
vn -0.31148 0.11612 -0.943131
vn -0.30964 0.0244977 -0.950538
vn -0.313254 0.131995 -0.940451
vn 0.808169 -0.0655224 0.585294
vn 0.807632 -0.0661318 0.585966
vn -0.999153 -0.0411043 -0.00185307
vn -0.999139 -0.0414715 -0.00100375
vn 0.0402893 -0.986086 0.161278
vn 0.0802151 -0.969272 0.232545
vn 0.253043 -0.768998 -0.587036
vn 0.253054 -0.768975 -0.587062
vn 0.775096 0.385654 -0.500497
vn 0.895967 0.384459 0.222341
vn 0.533992 0.52424 0.663344
vn -0.113255 0.771474 0.6261
vn 0.799534 0.199131 -0.566649
vn 0.797924 0.215636 -0.562866
vn -0.307368 -0.0935399 0.946982
vn -0.307475 -0.093467 0.946955
vn -0.0578213 -0.985143 0.161711
vn -0.104121 -0.964524 0.242595
vn 0.568011 -0.77246 -0.284024
vn 0.568029 -0.772444 -0.284031
vn 0.614495 -0.774426 0.150535
vn 0.614502 -0.77442 0.150534
vn 0.545032 0.38516 0.744709
vn 0.00278712 0.579354 0.815071
vn -0.486003 0.775076 0.403805
vn 0.810578 -0.0392994 0.58431
vn 0.810848 -0.0432153 0.583659
vn -0.996394 -0.0848251 -0.00166087
vn -0.996336 -0.085525 -0.000663915
vn -0.161512 -0.984249 0.0718877
vn -0.24957 -0.957579 0.144075
vn -0.17401 -0.98372 -0.0448894
vn 0.370763 -0.773974 0.513321
vn 0.370758 -0.773979 0.513318
vn -0.0595527 0.389004 0.919309
vn 0.745194 0.291998 -0.599519
vn 0.745711 0.29147 -0.599133
vn -0.29934 -0.214077 0.929821
vn -0.297553 -0.233049 0.925824
vn -0.307696 -0.0513022 -0.950101
vn -0.308347 -0.0508744 -0.949913
vn 0.829783 0.186097 0.526144
vn 0.82924 0.185098 0.527352
vt 0.65875 0.568417
vt 0.658749 0.453544
vt 0.742794 0.510983
vt 0.698075 0.656415
vt 0.758326 0.676365
vt 0.811308 0.618928
vt 0.832233 0.510981
vt 0.811308 0.403035
vt 0.758325 0.345599
vt 0.698075 0.365545
vt 0.318088 0.447181
vt 0.318088 0.55282
vt 0.243407 0.500001
vt 0.283143 0.633747
vt 0.229605 0.652091
vt 0.182526 0.599271
vt 0.163932 0.5
vt 0.182526 0.40073
vt 0.229606 0.34791
vt 0.283144 0.366253
vt 0.214621 0
vt 0.142813 0.0622668
vt 0.0949417 0.0622668
vt 0.190685 0.0622668
vt 0.238557 0.0622668
vt 0.286429 0.0622668
vt 0.3343 0.0622668
vt 0.660164 0.242254
vt 0.771492 0.205395
vt 0.780289 0.111712
vt 0.908201 0.250377
vt 0.869391 0.311524
vt 0.950269 0.182406
vt 1.01396 0.510981
vt 0.958719 0.510981
vt 0.0644015 0.793107
vt 0.00950253 0.500002
vt 0.0964276 0.739658
vt 0.051539 0.5
vt 0.210088 0.867177
vt 0.217907 0.781026
vt 0.130914 0.683425
vt 0.316831 0.747129
vt 0.190685 0.874685
vt 0.238557 0.874685
vt 0.190685 1
vt 0.238557 1
vt 0.0949417 0.505404
vt 0.142813 0.505404
vt 0.0949417 0.637897
vt 0.142813 0.637832
vt 0.238557 0.235198
vt 0.286429 0.235198
vt 0.238557 0.375782
vt 0.286429 0.379341
vt 0.190685 0.637739
vt 0.142813 0.721569
vt 0.190685 0.721569
vt 0.3343 0.381377
vt 0.286429 0.505404
vt 0.3343 0.505404
vt 0.908054 0.510981
vt 0.95027 0.839554
vt 0.908202 0.771583
vt 0.20341 0.949064
vt 0.33934 0.822891
vt 0.381399 0.5976
vt 0.142813 0.874685
vt 0.142813 1
vt 0.3343 0.721569
vt 0.3343 0.874685
vt 0.286429 0.721569
vt 0.286429 0.874685
vt 0.190685 0.235198
vt 0.190685 0.375639
vt 0.0949417 0.721569
vt 0.238557 0.505404
vt 0.869391 0.710437
vt 0.788996 1.01439
vt 0.780289 0.910249
vt 0.361486 0.894901
vt 0.423702 0.62752
vt 0.381399 0.4024
vt 0.316831 0.252872
vt 0.0949417 0.874685
vt 0.0949417 1
vt 0.238557 0.721569
vt 0.142813 0.235198
vt 0.142813 0.379113
vt 0.3343 0.235198
vt 0.190685 0.505404
vt 0.771491 0.816566
vt 0.6056 0.953668
vt 0.634833 0.862092
vt 0.464663 0.655959
vt 0.423702 0.37248
vt 0.33934 0.177111
vt 0.217906 0.218977
vt 0.0949417 0.235198
vt 0.0949417 0.381377
vt 0.660164 0.779709
vt 0.485897 0.68581
vt 0.539892 0.649646
vt 0.464662 0.344043
vt 0.361486 0.105101
vt 0.21009 0.132823
vt 0.130914 0.316575
vt 0.3343 0.637897
vt 0.286429 0.637843
vt 0.587499 0.617111
vt 0.485897 0.336152
vt 0.539892 0.372316
vt 0.6056 0.0682961
vt 0.634832 0.159872
vt 0.203409 0.0509363
vt 0.0964283 0.260343
vt 0.0965586 0.500001
vt 0.238557 0.637746
vt 0.587499 0.40485
vt 0.788995 0.00757515
vt 0.0644015 0.206893
vt 0.286429 1
vt 0.3343 1
mtllib MushroomBrownBig_LOD1.mtl
usemtl MushroomBrown
g Default
f 2/1/1 1/2/2 64/3/3
f 3/4/4 2/1/1 64/3/3
f 4/5/5 3/4/4 64/3/3
f 5/6/6 4/5/5 64/3/3
f 6/7/7 5/6/6 64/3/3
f 7/8/8 6/7/7 64/3/3
f 8/9/9 7/8/8 64/3/3
f 9/10/10 8/9/9 64/3/3
f 1/2/2 9/10/10 64/3/3
f 55/11/11 56/12/12 65/13/13
f 56/12/12 57/14/14 65/13/13
f 57/14/14 58/15/15 65/13/13
f 58/15/15 59/16/16 65/13/13
f 59/16/16 60/17/17 65/13/13
f 60/17/17 61/18/18 65/13/13
f 61/18/18 62/19/19 65/13/13
f 62/19/19 63/20/20 65/13/13
f 63/20/20 55/11/11 65/13/13
f 66/21/21 93/22/21 92/23/22
f 66/21/23 94/24/24 93/22/21
f 66/21/24 95/25/25 94/24/24
f 66/21/26 96/26/26 95/25/26
f 66/21/27 92/27/27 96/26/27
f 18/28/28 17/29/29 9/10/10
f 8/9/9 9/10/10 17/29/29
f 26/30/30 25/31/31 17/29/29
f 16/32/32 17/29/29 25/31/31
f 34/33/33 33/34/34 25/31/35
f 24/35/36 25/31/35 33/34/34
f 32/36/37 33/37/38 41/38/39
f 42/39/40 41/38/39 33/37/38
f 40/40/41 41/38/39 49/41/42
f 50/42/43 49/41/42 41/38/39
f 48/43/44 49/41/42 57/14/14
f 58/15/15 57/14/14 49/41/42
f 74/44/45 75/45/46 69/46/47
f 70/47/48 69/46/47 75/45/46
f 82/48/49 83/49/50 97/50/51
f 98/51/52 97/50/51 83/49/50
f 90/52/53 91/53/54 105/54/55
f 106/55/56 105/54/55 91/53/54
f 98/51/57 99/56/58 78/57/59
f 79/58/60 78/57/59 99/56/58
f 106/55/61 102/59/62 86/60/63
f 82/61/64 86/60/63 102/59/62
f 17/29/29 16/32/32 8/9/9
f 7/8/8 8/9/9 16/32/32
f 24/35/65 15/62/66 25/31/31
f 16/32/32 25/31/31 15/62/66
f 32/63/67 23/64/68 33/34/34
f 24/35/36 33/34/34 23/64/68
f 32/36/37 41/38/39 31/65/69
f 40/40/41 31/65/69 41/38/39
f 39/66/70 40/40/41 48/43/44
f 49/41/42 48/43/44 40/40/41
f 47/67/71 48/43/44 56/12/12
f 57/14/14 56/12/12 48/43/44
f 73/68/72 74/44/73 68/69/74
f 69/46/75 68/69/74 74/44/73
f 77/70/76 72/71/77 81/72/78
f 76/73/79 81/72/78 72/71/77
f 89/74/80 90/52/81 104/75/82
f 105/54/83 104/75/82 90/52/81
f 97/50/51 98/51/52 77/76/84
f 78/57/85 77/76/84 98/51/52
f 105/54/55 106/55/56 85/77/86
f 86/60/87 85/77/86 106/55/56
f 16/32/32 15/62/66 7/8/8
f 6/7/7 7/8/8 15/62/66
f 23/64/88 14/78/89 24/35/65
f 15/62/66 24/35/65 14/78/89
f 32/63/67 31/79/90 23/64/68
f 22/80/91 23/64/68 31/79/90
f 31/65/69 40/40/41 30/81/92
f 39/66/70 30/81/92 40/40/41
f 38/82/93 39/66/70 47/67/71
f 48/43/44 47/67/71 39/66/70
f 46/83/94 47/67/71 55/11/11
f 56/12/12 55/11/11 47/67/71
f 54/84/95 46/83/94 63/20/20
f 55/11/11 63/20/20 46/83/94
f 72/85/96 73/68/97 67/86/98
f 68/69/99 67/86/98 73/68/97
f 81/72/100 76/73/101 80/87/102
f 75/45/103 80/87/102 76/73/101
f 89/74/104 104/75/105 88/88/106
f 103/89/107 88/88/106 104/75/105
f 87/90/108 91/53/109 92/27/110
f 96/26/111 92/27/110 91/53/109
f 104/75/82 105/54/83 84/91/112
f 85/77/113 84/91/112 105/54/83
f 15/62/66 14/78/89 6/7/7
f 5/6/6 6/7/7 14/78/89
f 22/80/114 13/92/115 23/64/88
f 14/78/89 23/64/88 13/92/115
f 31/79/90 30/93/116 22/80/91
f 21/94/117 22/80/91 30/93/116
f 29/95/118 30/81/92 38/82/93
f 39/66/70 38/82/93 30/81/92
f 37/96/119 38/82/93 46/83/94
f 47/67/71 46/83/94 38/82/93
f 45/97/120 37/96/119 54/84/95
f 46/83/94 54/84/95 37/96/119
f 53/98/121 54/84/95 62/19/19
f 63/20/20 62/19/19 54/84/95
f 80/87/122 75/45/46 79/58/123
f 74/44/45 79/58/123 75/45/46
f 88/88/124 103/89/125 87/99/126
f 102/100/127 87/99/126 103/89/125
f 91/53/54 90/52/53 96/26/128
f 95/25/129 96/26/128 90/52/53
f 104/75/105 84/91/130 103/89/107
f 83/49/131 103/89/107 84/91/130
f 14/78/89 13/92/115 5/6/6
f 4/5/5 5/6/6 13/92/115
f 21/94/132 12/101/133 22/80/114
f 13/92/115 22/80/114 12/101/133
f 29/102/134 20/103/135 30/93/116
f 21/94/117 30/93/116 20/103/135
f 29/95/118 38/82/93 28/104/136
f 37/96/119 28/104/136 38/82/93
f 28/104/136 37/96/119 36/105/137
f 45/97/120 36/105/137 37/96/119
f 45/97/120 54/84/95 44/106/138
f 53/98/121 44/106/138 54/84/95
f 52/107/139 53/98/121 61/18/18
f 62/19/19 61/18/18 53/98/121
f 78/57/59 79/58/60 73/68/72
f 74/44/73 73/68/72 79/58/60
f 82/61/64 97/108/140 86/60/63
f 101/109/141 86/60/63 97/108/140
f 89/74/80 94/24/142 90/52/81
f 95/25/143 90/52/81 94/24/142
f 103/89/125 83/49/50 102/100/127
f 82/48/49 102/100/127 83/49/50
f 13/92/115 12/101/133 4/5/5
f 3/4/4 4/5/5 12/101/133
f 21/94/132 20/103/144 12/101/133
f 11/110/145 12/101/133 20/103/144
f 29/102/134 28/111/146 20/103/135
f 19/112/147 20/103/135 28/111/146
f 36/113/148 27/114/149 28/111/146
f 19/112/147 28/111/146 27/114/149
f 35/115/150 36/105/137 44/106/138
f 45/97/120 44/106/138 36/105/137
f 44/106/138 53/98/121 43/116/151
f 52/107/139 43/116/151 53/98/121
f 51/117/152 52/107/139 60/17/17
f 61/18/18 60/17/17 52/107/139
f 77/76/84 78/57/85 72/85/96
f 73/68/97 72/85/96 78/57/85
f 86/60/87 101/109/153 85/77/86
f 100/118/154 85/77/86 101/109/153
f 88/88/106 93/22/155 89/74/104
f 94/24/156 89/74/104 93/22/155
f 97/108/140 77/70/76 101/109/141
f 81/72/78 101/109/141 77/70/76
f 12/101/133 11/110/145 3/4/4
f 2/1/1 3/4/4 11/110/145
f 20/103/144 19/112/157 11/110/145
f 10/119/158 11/110/145 19/112/157
f 27/114/159 18/28/28 19/112/157
f 10/119/158 19/112/157 18/28/28
f 36/113/148 35/120/160 27/114/149
f 26/30/161 27/114/149 35/120/160
f 35/115/150 44/106/138 34/121/162
f 43/116/151 34/121/162 44/106/138
f 43/116/151 52/107/139 42/39/40
f 51/117/152 42/39/40 52/107/139
f 50/42/43 51/117/152 59/16/16
f 60/17/17 59/16/16 51/117/152
f 76/73/79 72/71/77 71/122/163
f 67/123/164 71/122/163 72/71/77
f 85/77/113 100/118/165 84/91/112
f 99/56/166 84/91/112 100/118/165
f 88/88/124 87/99/126 93/22/167
f 92/23/168 93/22/167 87/99/126
f 101/109/153 81/72/100 100/118/154
f 80/87/102 100/118/154 81/72/100
f 11/110/145 10/119/158 2/1/1
f 1/2/2 2/1/1 10/119/158
f 10/119/158 18/28/28 1/2/2
f 9/10/10 1/2/2 18/28/28
f 27/114/159 26/30/30 18/28/28
f 17/29/29 18/28/28 26/30/30
f 34/33/33 25/31/35 35/120/160
f 26/30/161 35/120/160 25/31/35
f 33/37/38 34/121/162 42/39/40
f 43/116/151 42/39/40 34/121/162
f 42/39/40 51/117/152 41/38/39
f 50/42/43 41/38/39 51/117/152
f 49/41/42 50/42/43 58/15/15
f 59/16/16 58/15/15 50/42/43
f 75/45/103 76/73/101 70/47/169
f 71/122/170 70/47/169 76/73/101
f 83/49/131 84/91/130 98/51/57
f 99/56/58 98/51/57 84/91/130
f 87/90/108 102/59/62 91/53/109
f 106/55/61 91/53/109 102/59/62
f 100/118/165 80/87/122 99/56/166
f 79/58/123 99/56/166 80/87/122
