# OBJ written from E:\3d\3D-Objekte\Cave creator\Textures\Plank.obj

o Plank
v -1.09754 -0.0290993 0.208971
v 1.09754 -0.0290993 0.208971
v -1.09754 0.0290993 0.208971
v 1.09754 0.0290993 0.208971
v -1.09754 0.0290993 -0.208972
v 1.09754 0.0290993 -0.208972
v -1.09754 -0.0290993 -0.208972
v 1.09754 -0.0290993 -0.208972
vn -2.1109 0 0
vn 2.1109 0 0
vn 0 -1 0
vn 0 0 -1
vn 0 1 0
vn 0 0 1
vt 0.0146857 0.073568
vt 0.228238 0.0200789
vt 0.0251077 0.115177
vt 0.23866 0.061688
vt 0.0153118 0.00643539
vt 0.252394 0.0857581
vt 0.00362939 0.0413521
vt 0.240712 0.120675
vt 0.736664 0.929104
vt 0.736664 0.320896
vt 0.997831 0.929104
vt 0.997831 0.320896
vt 0.724853 0.840988
vt 0.724853 0.591965
vt 0.764512 0.840988
vt 0.764512 0.591966
vt 0.736664 0.320896
vt 0.997831 0.320896
vt 0.724041 0.840988
vt 0.724041 0.591965
vt 0.7637 0.840988
vt 0.7637 0.591965
mtllib Plank.mtl
usemtl WoodBeams
g Default
f 7/1/1 1/2/1 5/3/1
f 3/4/1 5/3/1 1/2/1
f 2/5/2 8/6/2 4/7/2
f 6/8/2 4/7/2 8/6/2
f 7/9/3 8/10/3 1/11/3
f 2/12/3 1/11/3 8/10/3
f 5/13/4 6/14/4 7/15/4
f 8/16/4 7/15/4 6/14/4
f 3/9/5 4/17/5 5/11/5
f 6/18/5 5/11/5 4/17/5
f 1/19/6 2/20/6 3/21/6
f 4/22/6 3/21/6 2/20/6
