# OBJ written from E:\3d\3D-Objekte\Cave creator\Textures\RockSmallFlat_LOD2.obj

o RockSmallFlat_LOD2
v 0.0631143 0.376155 0.13047
v 0.0211402 0.376155 0.164488
v -0.0490353 0.376155 0.175603
v -0.112342 0.376155 0.143345
v -0.145132 0.385362 0.0806319
v -0.142783 0.396556 0.0267897
v -0.112512 0.391926 -0.0198564
v -0.0490241 0.377637 -0.0516191
v 0.0211402 0.376155 -0.0403764
v 0.0713806 0.376155 0.00986464
v 0.0824953 0.376155 0.0800398
v 0.209509 0.347555 0.236833
v 0.0998964 0.348541 0.328068
v -0.0636925 0.355471 0.339476
v -0.232562 0.369057 0.232432
v -0.328051 0.375015 0.110649
v -0.321035 0.418877 -0.0440294
v -0.273405 0.421346 -0.0979112
v -0.0798857 0.358896 -0.240886
v 0.0970216 0.347964 -0.219295
v 0.233924 0.344865 -0.0802599
v 0.262827 0.344476 0.157542
v 0.589152 0.301402 0.495283
v 0.343789 0.238701 0.684331
v -0.175436 0.226724 0.655339
v -0.617015 0.322556 0.457258
v -0.755755 0.280648 0.128102
v -0.73228 0.268916 -0.142821
v -0.411924 0.263225 -0.319252
v -0.0629328 0.331162 -0.507805
v 0.200827 0.386514 -0.53051
v 0.49922 0.306677 -0.268047
v 0.512688 0.273589 0.16186
v -0.564775 0.18844 -0.458446
v -0.137706 0.190569 -0.605016
v 0.0462698 0.177331 -0.643385
v 0.402384 0.203619 -0.546721
v 0.528011 0.211717 -0.431246
v 0.668624 0.166895 -0.14363
v 0.67959 0.162386 0.172862
v 0.611657 0.0219396 0.52689
v 0.32754 0.0244281 0.760872
v -0.145307 0.0106119 0.783442
v -0.548165 0.0190106 0.576085
v -0.771111 0.00266782 0.162242
v -0.801008 -0.0149043 -0.181276
v -0.597661 0.0263481 -0.501918
v -0.136875 0.0364601 -0.786354
v 0.510465 0.0984117 -0.659883
v 0.714462 0.105861 -0.5239
v 0.812107 0.0434287 -0.231313
v 0.718591 0.0160194 0.180339
v 0.615109 -0.132575 0.538838
v 0.331235 -0.144 0.768065
v -0.14815 -0.115517 0.778703
v -0.543664 -0.120477 0.579643
v -0.74789 -0.108409 0.174562
v -0.811111 -0.136818 -0.191411
v -0.639107 -0.170466 -0.518425
v -0.0942856 -0.151716 -0.705388
v 0.420447 -0.145708 -0.573891
v 0.597734 -0.166932 -0.410198
v 0.764412 -0.138132 -0.143614
v 0.695935 -0.115532 0.176842
v 0.453244 -0.287968 0.393053
v 0.184878 -0.273416 0.53871
v -0.174028 -0.365898 0.652748
v -0.462525 -0.351616 0.469365
v -0.511698 -0.391087 0.121309
v -0.487583 -0.355056 -0.120461
v -0.359239 -0.28549 -0.385872
v 0.0287191 -0.313644 -0.496001
v 0.430254 -0.421461 -0.38257
v 0.441151 -0.320076 -0.0342882
v 0.514849 -0.320507 0.243641
v 0.0608961 -0.293022 0.127565
v 0.0201297 -0.299637 0.159511
v -0.0471997 -0.307533 0.168678
v -0.107864 -0.308185 0.136534
v -0.136959 -0.299131 0.0787153
v -0.132206 -0.296077 0.029283
v -0.103177 -0.301261 -0.0147753
v -0.0382643 -0.303132 -0.0455675
v 0.0477563 -0.294802 -0.0170366
v 0.0769355 -0.289461 0.0264113
v 0.0799367 -0.289268 0.0788679
v -0.0310513 0.381339 0.0620558
v -0.0309718 -0.284854 0.0594435
vn 0.38958 0.920858 -0.0157702
vn 0.284952 0.954728 -0.0854188
vn 0.556241 0.824822 -0.101315
vn -0.239014 0.930862 -0.276348
vn -0.256225 0.883132 -0.392972
vn -0.151277 0.892944 -0.423989
vn 0.223622 0.573439 -0.788138
vn 0.323746 0.632303 -0.703833
vn 0.0227735 0.604335 -0.796405
vn 0.467104 0.868294 -0.166969
vn 0.6923 0.721143 -0.0259564
vn 0.437731 0.833043 -0.338277
vn -0.163714 -0.856519 -0.489462
vn 0.32006 -0.504433 -0.801941
vn 0.635938 -0.557869 -0.533259
vn 0.339401 -0.528031 -0.778454
vn 0.081257 0.994943 0.0590358
vn 0.1242 0.992168 0.0133176
vn 0.0561031 0.998008 0.0288484
vn 0.0537076 0.993935 0.095964
vn 9.51835e-005 0.995108 0.0987902
vn 0.00464729 0.994821 0.101535
vn 0.0185621 0.988914 0.147326
vn 0.0750541 0.988038 0.134715
vn 0.175047 0.984253 -0.0245786
vn 0.134404 0.988043 -0.0755469
vn 0.0568189 0.99504 -0.0816462
vn 0.0991051 0.993442 -0.0570191
vn -0.0527927 -0.99819 -0.0287902
vn 0.000568015 -0.999812 -0.0193671
vn 0.0491412 -0.998526 -0.0230449
vn 0.125241 -0.987384 -0.0968899
vn 0.0752565 -0.988411 -0.131835
vn 0.132431 -0.982989 -0.127257
vn 0.166358 -0.976956 -0.133724
vn 0.0955516 -0.995388 -0.00849102
vn -0.0188551 -0.996732 0.0785538
vn -0.0398232 -0.990288 0.133204
vn -0.0166853 -0.977465 0.210438
vn -0.0460542 -0.996138 0.0747578
vn 0.00600313 0.98213 -0.188107
vn 0.0219667 0.986924 -0.159684
vn 0.113561 0.98647 -0.118237
vn -0.250385 0.966694 0.0530069
vn -0.0721685 0.989247 0.127212
vn -0.0893142 0.98487 0.148504
vn -0.0206794 0.984076 0.176541
vn 0.968379 0.10365 0.226935
vn 0.856074 0.100945 0.5069
vn 0.96449 0.209232 0.161189
vn 0.97006 0.12403 0.208809
vn 0.336829 0.725822 -0.599775
vn 0.205758 0.793159 -0.573203
vn -0.00866561 0.642826 -0.765963
vn -0.204607 0.62445 -0.753789
vn -0.697584 -0.133636 0.70393
vn -0.804111 -0.039587 0.593159
vn -0.905823 -0.307812 0.291095
vn -0.970095 0.00513548 0.24267
vn 0.835156 -0.53292 0.136052
vn 0.548505 -0.771487 0.322413
vn 0.666474 -0.737377 0.109944
vn 0.183144 -0.937132 0.297056
vn 0.387958 -0.91471 0.113111
vn 0.0173252 -0.726477 -0.686973
vn 0.0197757 -0.732012 -0.681005
vn 0.0910499 -0.995204 -0.0357668
vn 0.210221 -0.972781 -0.0974917
vn -0.137032 0.990045 0.0321356
vn 0.167498 0.985811 -0.0109723
vn -0.0370605 0.940805 0.336917
vn -0.0189187 0.975502 0.219176
vn -0.0559297 0.69292 -0.718842
vn -0.254588 0.794324 -0.551575
vn -0.65187 0.256621 -0.713591
vn -0.621985 0.452579 -0.638989
vn -0.690826 0.0975306 0.716413
vn -0.569449 -0.193957 0.798817
vn -0.227328 0.212382 0.950377
vn -0.206317 -0.102979 0.973051
vn 0.965872 -0.152656 0.209254
vn 0.963455 -0.161977 0.213348
vn 0.943766 -0.241487 0.225809
vn -0.0538233 -0.929639 -0.36452
vn -0.090224 -0.964325 -0.24887
vn -0.164947 -0.751846 -0.638373
vn -0.295357 -0.891844 -0.342605
vn 0.122272 -0.98917 -0.0811922
vn -0.111264 0.982723 0.147905
vn -0.0447626 0.870167 0.490719
vn -0.0142174 0.882455 0.470182
vn 0.050042 0.983667 0.172899
vn 0.00192302 0.951279 0.308327
vn 0.153726 0.98808 0.00815346
vn 0.218382 0.97512 0.0380897
vn -0.965957 0.185946 -0.179862
vn -0.732362 0.300631 -0.610956
vn -0.891776 0.230672 -0.389264
vn -0.738576 0.284359 -0.611266
vn 0.343691 0.0475927 0.937876
vn 0.352635 0.120555 0.927963
vn -0.0897157 -0.181713 0.97925
vn 0.657365 -0.51182 -0.553092
vn 0.789824 -0.457747 -0.408222
vn 0.686497 -0.57209 -0.448815
vn 0.646037 -0.688504 -0.329543
vn -0.608534 -0.790969 -0.0636712
vn -0.425287 -0.872857 -0.239273
vn -0.112279 -0.977041 -0.181065
vn 0.158723 -0.935576 0.315444
vn 0.0613253 -0.990728 0.121232
vn 0.121826 -0.989266 0.0806955
vn 0.0899059 0.992383 0.0842139
vn 0.150645 0.986479 0.0645365
vn 0.214042 0.976725 0.0139621
vn -0.0278541 0.996642 0.0770056
vn 0.018946 0.998656 -0.0482512
vn -0.956899 0.151207 -0.247953
vn -0.986289 0.072679 0.14816
vn 0.783297 0.0558466 0.619134
vn 0.433957 -0.458584 -0.775488
vn -0.682509 -0.728301 0.0613102
vn -0.10757 -0.974511 0.196867
vn -0.127328 0.990388 -0.0540332
vn 0.427497 0.535665 -0.728223
vn 0.351005 0.795937 -0.493234
vn -0.903465 0.0417651 0.426622
vn 0.964276 -0.101356 0.244743
vn 0.224625 -0.36605 -0.903079
vn 0.213292 -0.546338 -0.809952
vn -0.685012 -0.362413 0.631993
vn -0.697679 -0.562624 0.443507
vn -0.0734237 -0.996746 0.0332498
vn -0.14289 -0.980986 -0.131336
vn 0.00979897 0.976313 -0.216141
vn -0.220674 0.954083 -0.202554
vn -0.343567 0.27374 0.898347
vn -0.409802 0.238844 0.88035
vn -0.274954 0.40662 0.871241
vn 0.677809 0.73087 0.0800229
vn -0.465604 -0.4366 -0.7698
vn -0.319904 -0.562253 -0.762583
vn -0.416244 -0.152411 -0.896388
vn -0.617028 0.193904 -0.762678
vn -0.576511 0.0666225 -0.814369
vn -0.548457 -0.288248 0.784925
vn -0.448267 -0.444055 0.775804
vn 0.489658 -0.871908 -0.00321021
vn 0.680408 -0.731607 0.0423777
vn 0.308914 -0.94946 0.055652
vn 0.648877 -0.760709 -0.0167523
vn -0.232701 0.954429 -0.186859
vn -0.114438 0.930153 -0.348883
vn -0.304345 0.940861 -0.148845
vn 0.0186483 0.464088 -0.885593
vn -0.257875 0.621044 -0.740139
vn -0.242757 0.75865 -0.604582
vn -0.228971 0.571783 0.787805
vn -0.0237093 0.631463 0.775044
vn 0.314023 0.318505 0.894396
vn 0.466409 0.862009 -0.198501
vn -0.719379 0.168434 -0.673887
vn -0.982194 0.0948792 -0.162154
vn -0.857129 0.16529 -0.487862
vn 0.174534 -0.872116 0.457112
vn 0.176687 -0.69168 0.700258
vn 0.373483 -0.447394 0.812619
vn 0.113475 -0.36277 0.924944
vn 0.625328 -0.763382 -0.161906
vn 0.834728 -0.535177 0.129675
vn 0.753415 -0.616637 -0.228308
vn 0.105651 -0.980215 -0.167384
vn -0.190024 0.98125 -0.0322512
vn -0.180121 0.982332 0.0507907
vn -0.268978 0.743516 -0.612237
vn 0.582245 0.137515 0.8013
vn 0.431481 0.241353 0.869237
vn -0.997801 0.055385 -0.036421
vt 0 0.2625
vt 0.05 0.31875
vt 0 0.375
vt 0.5 0.31875
vt 0.575 0.2625
vt 0.575 0.375
vt 0.775 0.2625
vt 0.8 0.375
vt 0.71875 0.375
vt 0.875 0.2625
vt 0.9 0.375
vt 0.85 0.375
vt 0.675 0.35
vt 0.8 0.575
vt 0.85 0.575
vt 0.825 0.7625
vt 0.05 0.05
vt 0 0.05
vt 0.025 0
vt 0.125 0.05
vt 0.075 0
vt 0.225 0.05
vt 0.175 0
vt 0.325 0.05
vt 0.275 0
vt 0.425 0.05
vt 0.375 0
vt 0.5 0.05
vt 0.475 0
vt 0.575 0.05
vt 0.525 0
vt 0.675 0.05
vt 0.625 0
vt 0.775 0.05
vt 0.725 0
vt 0.875 0.05
vt 0.825 0
vt 0.975 0.05
vt 0.925 0
vt 0 0.95
vt 0.05 0.95
vt 0.025 1
vt 0.125 0.95
vt 0.075 1
vt 0.225 0.95
vt 0.175 1
vt 0.325 0.95
vt 0.275 1
vt 0.425 0.95
vt 0.375 1
vt 0.5 0.95
vt 0.475 1
vt 0.575 0.95
vt 0.525 1
vt 0.6875 0.95
vt 0.625 1
vt 0.825 0.95
vt 0.775 1
vt 0.9 0.95
vt 0.875 1
vt 0.975 0.95
vt 0.925 1
vt 0.675 0.125
vt 0.575 0.125
vt 0.425 0.31875
vt 0.325 0.31875
vt 0.425 0.125
vt 0.325 0.125
vt 0.05 0.475
vt 0 0.475
vt 0.8 0.475
vt 0.6875 0.475
vt 0.325 0.575
vt 0.325 0.475
vt 0.425 0.575
vt 0.425 0.475
vt 0 0.575
vt 0.05 0.575
vt 0 0.7625
vt 0.05 0.7625
vt 0.6875 0.7625
vt 0.6875 0.575
vt 0.325 0.7625
vt 0.425 0.7625
vt 0.5 0.125
vt 0.225 0.31875
vt 0.225 0.125
vt 0.575 0.475
vt 0.225 0.475
vt 0.225 0.575
vt 0.9 0.475
vt 0.975 0.475
vt 0.9 0.575
vt 0.975 0.575
vt 0.575 0.7625
vt 0.575 0.575
vt 0.225 0.7625
vt 0.125 0.31875
vt 0.125 0.125
vt 0.875 0.125
vt 0.975 0.2625
vt 0.975 0.125
vt 0.975 0.375
vt 0.5 0.475
vt 0.125 0.575
vt 0.125 0.475
vt 0.85 0.475
vt 0.5 0.575
vt 0.5 0.7625
vt 0.125 0.7625
vt 0.975 0.7625
vt 0.9 0.7625
vt 0.05 0.125
vt 0.775 0.125
vt 0 0.125
vt 0.675 0.2625
mtllib RockSmallFlat_LOD2.mtl
usemtl RockSmall
g Default
f 33/1/1 23/2/2 40/3/3
f 28/4/4 29/5/5 34/6/6
f 31/7/7 37/8/8 36/9/9
f 32/10/10 39/11/11 38/12/12
f 34/6/13 35/13/13 36/9/13
f 61/14/14 62/15/15 73/16/16
f 1/17/17 11/18/18 87/19/19
f 2/20/20 1/17/17 87/21/19
f 3/22/21 2/20/20 87/23/19
f 4/24/22 3/22/21 87/25/19
f 5/26/23 4/24/22 87/27/19
f 6/28/24 5/26/23 87/29/19
f 7/30/25 6/28/24 87/31/19
f 8/32/26 7/30/25 87/33/19
f 9/34/27 8/32/26 87/35/19
f 10/36/28 9/34/27 87/37/19
f 11/38/18 10/36/28 87/39/19
f 86/40/29 76/41/30 88/42/31
f 76/41/30 77/43/32 88/44/31
f 77/43/32 78/45/33 88/46/31
f 78/45/33 79/47/34 88/48/31
f 79/47/34 80/49/35 88/50/31
f 80/49/35 81/51/36 88/52/31
f 81/51/36 82/53/37 88/54/31
f 82/53/37 83/55/38 88/56/31
f 83/55/38 84/57/39 88/58/31
f 84/57/39 85/59/40 88/60/31
f 85/59/40 86/61/29 88/62/31
f 19/63/41 18/64/42 8/32/26
f 7/30/25 8/32/26 18/64/43
f 27/65/44 26/66/45 16/67/46
f 15/68/47 16/67/46 26/66/45
f 23/2/48 41/69/49 40/3/50
f 52/70/51 40/3/50 41/69/49
f 37/8/52 49/71/53 36/9/54
f 48/72/55 36/9/54 49/71/53
f 56/73/56 44/74/57 57/75/58
f 45/76/59 57/75/58 44/74/57
f 64/77/60 53/78/61 75/79/62
f 65/80/63 75/79/64 53/78/61
f 73/16/16 72/81/65 61/14/14
f 60/82/66 61/14/14 72/81/65
f 68/83/67 69/84/68 79/47/34
f 80/49/35 79/47/34 69/84/68
f 17/85/69 6/28/24 18/64/70
f 7/30/25 18/64/43 6/28/24
f 26/66/45 25/86/71 15/68/47
f 14/87/72 15/68/47 25/86/71
f 36/9/73 48/72/55 34/6/74
f 47/88/75 34/6/76 48/72/55
f 44/74/77 56/73/78 43/89/79
f 55/90/80 43/89/79 56/73/78
f 51/91/81 52/92/51 63/93/82
f 64/94/83 63/93/82 52/92/51
f 72/81/84 71/95/85 60/82/86
f 59/96/87 60/82/86 71/95/85
f 67/97/88 68/83/67 78/45/33
f 79/47/34 78/45/33 68/83/67
f 17/85/89 16/67/46 6/28/24
f 5/26/23 6/28/24 16/67/46
f 25/86/90 24/98/91 14/87/72
f 13/99/92 14/87/72 24/98/93
f 32/10/10 21/100/94 33/101/1
f 22/102/95 33/101/1 21/100/94
f 40/103/3 39/11/11 33/101/1
f 32/10/10 33/101/1 39/11/11
f 28/4/96 34/6/97 46/104/98
f 47/88/99 46/104/98 34/6/97
f 54/105/100 42/106/101 55/90/102
f 43/89/79 55/90/102 42/106/101
f 50/107/103 51/91/104 62/15/105
f 63/93/106 62/15/105 51/91/104
f 58/108/107 59/96/87 70/109/108
f 71/95/85 70/109/109 59/96/87
f 66/110/110 67/97/88 77/43/32
f 78/45/33 77/43/32 67/97/88
f 75/111/111 86/61/29 74/112/112
f 85/59/40 74/112/112 86/61/29
f 16/67/46 15/68/47 5/26/23
f 4/24/22 5/26/23 15/68/47
f 24/98/93 23/2/113 13/99/92
f 12/113/114 13/99/92 23/2/115
f 32/10/10 31/7/116 21/100/94
f 20/114/117 21/100/94 31/7/116
f 46/104/118 45/76/59 28/4/96
f 27/65/119 28/4/96 45/76/59
f 54/105/100 53/78/120 42/106/101
f 41/69/49 42/106/101 53/78/120
f 50/107/103 62/15/15 49/71/121
f 61/14/14 49/71/121 62/15/15
f 57/75/58 58/108/107 69/84/122
f 70/109/108 69/84/122 58/108/107
f 65/80/63 66/110/110 76/41/30
f 77/43/32 76/41/30 66/110/110
f 73/16/123 74/112/112 84/57/39
f 85/59/40 84/57/39 74/112/112
f 15/68/47 14/87/72 4/24/22
f 3/22/21 4/24/22 14/87/72
f 23/2/115 33/1/1 12/113/114
f 22/115/95 12/113/114 33/1/1
f 31/7/116 30/116/124 20/114/117
f 19/63/41 20/114/117 30/116/124
f 31/7/125 32/10/10 37/8/52
f 38/12/12 37/8/126 32/10/10
f 44/74/57 26/66/127 45/76/59
f 27/65/119 45/76/59 26/66/127
f 53/78/120 64/77/128 41/69/49
f 52/70/51 41/69/49 64/77/83
f 49/71/121 61/14/14 48/72/129
f 60/82/130 48/72/129 61/14/14
f 56/73/131 57/75/58 68/83/132
f 69/84/122 68/83/132 57/75/58
f 65/80/63 76/41/30 75/79/111
f 86/40/29 75/79/133 76/41/30
f 72/81/134 73/16/123 83/55/38
f 84/57/39 83/55/38 73/16/123
f 14/87/72 13/99/92 3/22/21
f 2/20/20 3/22/21 13/99/92
f 22/102/95 21/100/94 11/38/18
f 10/36/28 11/38/18 21/100/94
f 18/64/135 19/63/41 29/5/5
f 30/116/136 29/5/5 19/63/41
f 26/66/137 44/74/138 25/86/139
f 43/89/79 25/86/139 44/74/138
f 51/91/140 39/11/11 52/92/51
f 40/103/50 52/92/51 39/11/11
f 48/72/141 60/82/142 47/88/143
f 59/96/144 47/88/145 60/82/143
f 55/90/80 56/73/146 67/97/147
f 68/83/132 67/97/147 56/73/146
f 63/93/148 64/94/149 74/112/150
f 75/111/62 74/112/151 64/94/149
f 71/95/85 72/81/134 82/53/37
f 83/55/38 82/53/37 72/81/134
f 13/99/92 12/113/114 2/20/20
f 1/17/17 2/20/20 12/113/114
f 21/100/94 20/114/117 10/36/28
f 9/34/27 10/36/28 20/114/117
f 28/4/4 17/85/152 29/5/5
f 18/64/153 29/5/5 17/85/154
f 31/7/155 36/9/54 30/116/156
f 35/13/157 30/116/156 36/9/54
f 25/86/158 43/89/79 24/98/159
f 42/106/101 24/98/160 43/89/79
f 38/12/12 39/11/11 50/107/161
f 51/91/140 50/107/161 39/11/11
f 47/88/75 59/96/162 46/104/98
f 58/108/163 46/104/118 59/96/164
f 54/105/165 55/90/166 66/110/110
f 67/97/167 66/110/110 55/90/168
f 63/93/169 74/112/150 62/15/105
f 73/16/170 62/15/171 74/112/151
f 70/109/172 71/95/85 81/51/36
f 82/53/37 81/51/36 71/95/85
f 22/115/95 11/18/18 12/113/114
f 1/17/17 12/113/114 11/18/18
f 20/114/117 19/63/41 9/34/27
f 8/32/26 9/34/27 19/63/41
f 28/4/4 27/65/44 17/85/173
f 16/67/46 17/85/174 27/65/44
f 30/116/175 35/13/157 29/5/5
f 34/6/6 29/5/5 35/13/157
f 23/2/176 24/98/177 41/69/49
f 42/106/101 41/69/49 24/98/177
f 50/107/161 49/71/53 38/12/12
f 37/8/126 38/12/12 49/71/53
f 58/108/163 57/75/58 46/104/178
f 45/76/59 46/104/178 57/75/58
f 53/78/61 54/105/165 65/80/63
f 66/110/110 65/80/63 54/105/165
f 69/84/68 70/109/172 80/49/35
f 81/51/36 80/49/35 70/109/172
